<?xml version="1.0" encoding="utf-8"?>
<!-- Generator: Adobe Illustrator 16.2.1, SVG Export Plug-In . SVG Version: 6.00 Build 0)  -->
<!DOCTYPE svg PUBLIC "-//W3C//DTD SVG 1.1//EN" "https://www.w3.org/Graphics/SVG/1.1/DTD/svg11.dtd">
<svg version="1.1" id="Layer_1" xmlns="https://www.w3.org/2000/svg" xmlns:xlink="https://www.w3.org/1999/xlink" x="0px" y="0px"
	 width="150px" height="75px" viewBox="0 0 150 75" enable-background="new 0 0 150 75" xml:space="preserve">
<g>
	<circle fill="#0B0D0E" cx="-19.097" cy="-23.488" r="15.292"/>
	<circle fill="#FFFFFF" cx="-19.097" cy="-23.488" r="4.792"/>
	<circle fill="#0B0D0E" cx="-19.097" cy="-23.488" r="1.44"/>
</g>
<g>
	<g>
		<path fill="#253435" d="M-73.592-61.775c0.007,0.214,0.007,0.479,0.002,0.796c-0.004,0.317-0.01,0.652-0.017,1.004
			c-0.008,0.353-0.018,0.711-0.034,1.073c-0.014,0.362-0.028,0.696-0.038,1c-0.01,0.304-0.016,0.565-0.019,0.785
			c-0.002,0.219-0.001,0.359,0.002,0.421c0.003,0.553,0.001,1.065-0.007,1.538c-0.007,0.474-0.017,0.942-0.029,1.407
			c-0.012,0.465-0.026,0.945-0.041,1.441s-0.028,1.043-0.039,1.643c-0.012,0.598-0.027,1.264-0.042,1.996
			c-0.017,0.732-0.026,1.572-0.033,2.518l5.475-0.94c0.246-0.044,0.449-0.072,0.609-0.082c0.195-0.015,0.319,0.008,0.373,0.065
			c0.053,0.062,0.084,0.154,0.093,0.289c0.001,0.019-0.001,0.041-0.008,0.074c-0.007,0.031-0.023,0.092-0.047,0.184
			c-0.026,0.092-0.06,0.224-0.107,0.396c-0.046,0.172-0.107,0.412-0.184,0.721l-0.232,0.898c-0.078,0.291-0.151,0.555-0.219,0.785
			c-0.069,0.231-0.16,0.436-0.272,0.609c-0.113,0.172-0.259,0.312-0.439,0.424c-0.179,0.108-0.415,0.188-0.705,0.235
			c-0.186,0.031-0.437,0.063-0.756,0.101c-0.318,0.035-0.687,0.074-1.103,0.115c-0.416,0.043-0.865,0.09-1.348,0.143
			c-0.483,0.051-0.977,0.107-1.48,0.168c-0.496,0.053-0.997,0.1-1.501,0.139c-0.506,0.039-0.986,0.08-1.438,0.119
			c-0.453,0.041-0.869,0.078-1.25,0.113c-0.38,0.037-0.695,0.065-0.943,0.094c-0.23,0.016-0.398,0.01-0.503-0.02
			c-0.104-0.027-0.16-0.082-0.166-0.162c-0.007-0.099,0.015-0.24,0.064-0.426c0.049-0.187,0.116-0.396,0.197-0.632
			c0.083-0.231,0.175-0.475,0.277-0.727c0.104-0.253,0.205-0.498,0.304-0.738l0.03-4.776c0.015-0.814,0.029-1.64,0.042-2.479
			s0.019-1.652,0.018-2.437l-0.019-3.545c-0.004-0.837-0.011-1.446-0.019-1.825c-0.009-0.378-0.014-0.585-0.017-0.621
			c0.007-0.162,0.01-0.295,0.012-0.403c0.001-0.107,0.011-0.197,0.028-0.269c0.018-0.072,0.047-0.128,0.089-0.167
			c0.042-0.038,0.106-0.07,0.193-0.093l4.597-1.43c0.096-0.042,0.215-0.069,0.356-0.079c0.098-0.007,0.169,0.018,0.212,0.072
			c0.044,0.055,0.071,0.162,0.083,0.322c0.002,0.018,0.001,0.042-0.001,0.074C-73.593-61.831-73.593-61.801-73.592-61.775z"/>
		<path fill="#253435" d="M-66.574-48.761c0.031-1.225,0.062-2.436,0.096-3.633c0.032-1.198,0.05-2.426,0.052-3.685
			c-0.003-0.294,0.012-0.498,0.044-0.612c0.032-0.114,0.127-0.194,0.284-0.24c0.744-0.204,1.524-0.416,2.338-0.638
			c0.814-0.221,1.599-0.487,2.353-0.798c0.025-0.011,0.065-0.018,0.119-0.021c0.098-0.008,0.149,0.024,0.154,0.096l-0.299,13.054
			c-0.005,0.295-0.023,0.498-0.051,0.611c-0.028,0.113-0.12,0.193-0.277,0.24c-0.739,0.283-1.485,0.594-2.237,0.932
			c-0.753,0.338-1.549,0.682-2.391,1.037c-0.025,0.01-0.065,0.018-0.119,0.02c-0.098,0.008-0.149-0.033-0.156-0.123
			c0-0.008,0-0.129,0.002-0.358c0.001-0.231,0.006-0.533,0.011-0.897c0.005-0.365,0.011-0.775,0.015-1.232
			c0.004-0.455,0.011-0.91,0.019-1.365c0.009-0.455,0.017-0.895,0.022-1.312C-66.586-48.108-66.581-48.466-66.574-48.761z
			 M-66.312-59.457c0.001-0.384,0-0.678,0-0.883c-0.001-0.205-0.001-0.358,0.001-0.461c0.001-0.103,0.001-0.167,0-0.194
			c-0.002-0.026-0.001-0.046,0.002-0.061c0.003-0.013,0.005-0.04,0.008-0.08c0.001-0.04,0.002-0.126,0.002-0.255
			s0-0.319,0.001-0.568c0-0.25,0.003-0.594,0.009-1.031c-0.003-0.293,0.012-0.498,0.044-0.612c0.032-0.113,0.127-0.193,0.284-0.24
			c0.744-0.204,1.524-0.416,2.338-0.637c0.813-0.221,1.599-0.488,2.353-0.799c0.026-0.011,0.066-0.018,0.119-0.022
			c0.03,0.051,0.068,0.084,0.114,0.099l0.042,0.024l-0.04,3.668c-0.007,0.294-0.025,0.501-0.057,0.62
			c-0.032,0.118-0.124,0.196-0.272,0.232c-0.744,0.194-1.497,0.404-2.257,0.625c-0.761,0.223-1.566,0.448-2.416,0.676
			c-0.026,0.011-0.066,0.018-0.119,0.022C-66.253-59.327-66.307-59.368-66.312-59.457z"/>
		<path fill="#253435" d="M-60.204-47.224c0-0.008-0.003-0.017-0.008-0.019c-0.004-0.006-0.007-0.012-0.007-0.021
			c-0.008-0.115,0.05-0.176,0.174-0.187c0.079-0.006,0.152,0.021,0.219,0.078c0.378,0.312,0.804,0.562,1.276,0.74
			c0.472,0.182,0.974,0.254,1.507,0.217c0.141-0.01,0.305-0.035,0.489-0.08c0.184-0.043,0.358-0.106,0.521-0.188
			c0.164-0.084,0.297-0.188,0.399-0.316c0.103-0.127,0.148-0.279,0.136-0.457c-0.013-0.195-0.074-0.373-0.184-0.529
			c-0.109-0.158-0.248-0.283-0.415-0.379c-0.094-0.057-0.256-0.154-0.488-0.293c-0.233-0.141-0.482-0.291-0.748-0.451
			c-0.265-0.16-0.516-0.312-0.754-0.457c-0.237-0.143-0.403-0.248-0.496-0.312c-0.42-0.272-0.76-0.56-1.017-0.853
			c-0.257-0.295-0.458-0.604-0.606-0.929c-0.146-0.325-0.251-0.667-0.312-1.028c-0.06-0.361-0.104-0.746-0.133-1.155
			c-0.043-0.622,0.081-1.219,0.372-1.792c0.289-0.574,0.688-1.087,1.197-1.542c0.508-0.455,1.096-0.828,1.762-1.119
			c0.667-0.292,1.355-0.462,2.066-0.512c0.586-0.041,1.169,0.008,1.75,0.146c0.581,0.139,1.129,0.404,1.647,0.796
			c0.083,0.556,0.152,1.104,0.208,1.644c0.055,0.541,0.121,1.107,0.198,1.699c0.007,0.115-0.014,0.195-0.063,0.239
			c-0.051,0.043-0.111,0.068-0.183,0.072c-0.062,0.005-0.117-0.013-0.165-0.054c-0.218-0.182-0.439-0.36-0.667-0.536
			c-0.226-0.176-0.461-0.33-0.707-0.459c-0.246-0.13-0.505-0.232-0.778-0.307c-0.272-0.076-0.56-0.102-0.862-0.081
			c-0.186,0.013-0.372,0.041-0.556,0.085s-0.348,0.114-0.494,0.208c-0.145,0.095-0.259,0.217-0.342,0.365
			c-0.083,0.149-0.117,0.334-0.102,0.557c0.018,0.257,0.064,0.477,0.139,0.659c0.076,0.182,0.235,0.354,0.477,0.515l2.593,1.506
			c0.475,0.279,0.862,0.559,1.163,0.836c0.3,0.277,0.541,0.559,0.721,0.84c0.18,0.283,0.309,0.564,0.387,0.85
			c0.077,0.285,0.125,0.568,0.146,0.854c0.056,0.799-0.08,1.515-0.406,2.147c-0.326,0.634-0.769,1.172-1.326,1.617
			c-0.558,0.443-1.2,0.797-1.927,1.058c-0.727,0.26-1.463,0.416-2.208,0.467c-0.569,0.041-1.122,0.021-1.658-0.063
			c-0.536-0.082-1.04-0.232-1.509-0.451L-60.204-47.224z"/>
		<path fill="#253435" d="M-43.323-55.019c-0.059,0.941-0.112,1.879-0.159,2.814c-0.047,0.937-0.055,1.81-0.026,2.619
			c0.024,0.346,0.071,0.633,0.14,0.858c0.069,0.228,0.16,0.404,0.271,0.529c0.111,0.125,0.239,0.213,0.386,0.262
			c0.146,0.047,0.307,0.064,0.485,0.054c0.284-0.021,0.592-0.084,0.923-0.191c0.331-0.106,0.662-0.239,0.99-0.396
			c0.104-0.053,0.191-0.092,0.266-0.119c0.073-0.027,0.137-0.043,0.19-0.047c0.089-0.006,0.151,0.029,0.188,0.107
			c0.037,0.077,0.078,0.215,0.123,0.411c0.045,0.199,0.11,0.464,0.196,0.798c0.085,0.334,0.218,0.752,0.395,1.258
			c0.012,0.043,0.022,0.08,0.028,0.11c0.007,0.031,0.011,0.062,0.014,0.086c0.009,0.123-0.032,0.218-0.122,0.275
			c-0.09,0.062-0.238,0.133-0.447,0.219c-0.355,0.147-0.73,0.304-1.125,0.459c-0.396,0.158-0.786,0.304-1.174,0.438
			c-0.387,0.133-0.761,0.246-1.12,0.338s-0.676,0.146-0.952,0.166c-1.483,0.104-2.588-0.189-3.319-0.879
			c-0.729-0.691-1.148-1.789-1.252-3.299c-0.018-0.259-0.027-0.523-0.028-0.795c-0.001-0.272,0.001-0.556,0.008-0.851
			c0.027-0.896,0.045-1.74,0.058-2.54c0.011-0.799,0.027-1.565,0.048-2.297l-1.398,0.097c-0.479,0.033-0.828,0.037-1.043,0.012
			c-0.216-0.026-0.328-0.1-0.336-0.225c-0.003-0.036,0.035-0.134,0.112-0.295c0.079-0.163,0.179-0.356,0.301-0.583
			c0.123-0.228,0.255-0.47,0.397-0.73c0.142-0.259,0.28-0.503,0.412-0.731c0.131-0.228,0.245-0.425,0.339-0.592
			c0.096-0.168,0.156-0.271,0.18-0.307l0.946-0.065c0.032-0.681,0.058-1.251,0.074-1.712c0.018-0.46,0.031-0.842,0.042-1.147
			c0.01-0.304,0.023-0.538,0.038-0.705c0.016-0.166,0.036-0.289,0.061-0.372c0.026-0.083,0.062-0.136,0.109-0.161
			c0.048-0.026,0.11-0.05,0.189-0.074c0.394-0.108,0.775-0.208,1.144-0.3c0.369-0.092,0.736-0.187,1.104-0.284
			c0.367-0.097,0.742-0.206,1.121-0.326s0.774-0.257,1.183-0.409c0.027-0.002,0.044-0.006,0.052-0.011
			c0.009-0.004,0.027-0.008,0.053-0.01c0.107-0.008,0.163,0.024,0.167,0.096l0.002,0.027c-0.011,0.49-0.033,1.174-0.066,2.051
			c-0.032,0.876-0.068,1.87-0.107,2.978l3.568-0.247c0.071-0.005,0.142,0.015,0.211,0.059c0.07,0.043,0.109,0.124,0.117,0.239
			c0.003,0.044-0.039,0.208-0.126,0.49c-0.087,0.283-0.212,0.652-0.377,1.11l-0.405,1.111c-0.053,0.138-0.11,0.24-0.172,0.307
			s-0.194,0.116-0.398,0.148L-43.323-55.019z"/>
		<path fill="#253435" d="M-32.271-60.401c0.843-0.059,1.62,0.045,2.33,0.312c0.71,0.268,1.328,0.635,1.855,1.102
			c0.528,0.467,0.947,1.002,1.256,1.606c0.309,0.603,0.486,1.215,0.528,1.836c0.039,0.549-0.091,1.115-0.391,1.693
			c-0.299,0.578-0.736,1.11-1.313,1.596c-0.577,0.485-1.282,0.896-2.116,1.229c-0.833,0.336-1.761,0.537-2.782,0.609
			c-0.532,0.037-1.096,0.021-1.688-0.043c0.062,0.379,0.196,0.699,0.401,0.961c0.206,0.264,0.456,0.473,0.753,0.629
			c0.296,0.158,0.627,0.268,0.992,0.326c0.366,0.061,0.739,0.076,1.122,0.051c0.426-0.029,0.833-0.098,1.223-0.199
			c0.39-0.104,0.762-0.229,1.118-0.379c0.355-0.147,0.696-0.312,1.023-0.484c0.327-0.176,0.635-0.35,0.926-0.52
			c0.079-0.023,0.147-0.045,0.204-0.062c0.057-0.016,0.112-0.026,0.165-0.03c0.011,0.285,0.026,0.556,0.043,0.813
			c0.018,0.256,0.038,0.568,0.058,0.933c0.021,0.364,0.042,0.769,0.064,1.213c0.03,0.043,0.05,0.086,0.062,0.129
			c0.013,0.045,0.019,0.08,0.021,0.104c0.006,0.107-0.083,0.23-0.27,0.367c-0.187,0.14-0.433,0.285-0.738,0.439
			c-0.306,0.154-0.656,0.309-1.052,0.461c-0.395,0.152-0.798,0.293-1.208,0.426c-0.411,0.131-0.809,0.238-1.195,0.322
			c-0.387,0.086-0.726,0.139-1.02,0.158c-0.959,0.066-1.9-0.035-2.824-0.305c-0.924-0.271-1.756-0.693-2.496-1.267
			c-0.74-0.573-1.349-1.289-1.829-2.147c-0.479-0.857-0.756-1.842-0.833-2.951c-0.082-1.164,0.043-2.267,0.372-3.312
			c0.329-1.043,0.83-1.967,1.5-2.773c0.67-0.804,1.493-1.459,2.466-1.964C-34.568-60.023-33.479-60.317-32.271-60.401z
			 M-32.186-56.848c-0.365,0.025-0.694,0.127-0.99,0.302c-0.295,0.177-0.56,0.418-0.792,0.724c-0.233,0.306-0.429,0.667-0.587,1.085
			c-0.159,0.417-0.278,0.873-0.36,1.369c0.903-0.223,1.651-0.444,2.243-0.664c0.59-0.219,1.062-0.433,1.414-0.64
			s0.596-0.407,0.734-0.6c0.139-0.192,0.202-0.373,0.19-0.542c-0.011-0.16-0.081-0.307-0.211-0.44
			c-0.129-0.134-0.287-0.247-0.472-0.342c-0.185-0.094-0.384-0.164-0.596-0.206C-31.827-56.844-32.018-56.859-32.186-56.848z"/>
		<path fill="#253435" d="M-14.521-46.22c-0.096,0.033-0.222,0.084-0.377,0.154c-0.156,0.067-0.31,0.106-0.459,0.116
			c-0.125,0.011-0.235-0.014-0.334-0.069c-0.098-0.056-0.15-0.158-0.162-0.31l-0.004-0.08c0.02-0.481,0.035-0.893,0.047-1.229
			c0.014-0.334,0.025-0.641,0.037-0.911c0.014-0.272,0.021-0.545,0.023-0.818c0.004-0.271,0.01-0.588,0.021-0.95
			c0.01-0.361,0.021-0.791,0.037-1.287c0.015-0.496,0.03-1.115,0.051-1.856c0.015-0.456,0.021-0.92,0.023-1.393
			c0.004-0.474-0.009-0.91-0.037-1.309c-0.019-0.266-0.056-0.511-0.111-0.734c-0.055-0.224-0.139-0.415-0.252-0.572
			c-0.113-0.157-0.264-0.274-0.446-0.351c-0.183-0.077-0.413-0.104-0.688-0.085c-0.203,0.013-0.481,0.078-0.836,0.191
			c-0.354,0.114-0.699,0.285-1.041,0.514c-0.341,0.229-0.638,0.52-0.891,0.871c-0.251,0.353-0.378,0.774-0.381,1.265
			c-0.008,0.661-0.018,1.226-0.028,1.694c-0.013,0.471-0.024,0.867-0.038,1.193s-0.023,0.594-0.031,0.799
			c-0.008,0.206-0.012,0.379-0.011,0.523c-0.007,0.035-0.014,0.135-0.021,0.295c-0.008,0.16-0.014,0.354-0.021,0.576
			c-0.007,0.225-0.013,0.461-0.018,0.711s-0.011,0.485-0.019,0.711c-0.006,0.223-0.011,0.416-0.013,0.576
			c-0.002,0.159-0.002,0.258,0,0.293c0.004,0.071,0.011,0.133,0.019,0.18c0.008,0.049,0.015,0.096,0.018,0.141
			c0.005,0.07-0.023,0.133-0.088,0.186c-0.062,0.054-0.207,0.121-0.434,0.197l-3.446,1.457c-0.096,0.043-0.221,0.096-0.377,0.16
			c-0.156,0.064-0.31,0.102-0.46,0.111c-0.125,0.01-0.235-0.014-0.333-0.068c-0.098-0.057-0.151-0.16-0.162-0.311l0.267-13.693
			c0.006-0.295,0.025-0.5,0.058-0.613c0.032-0.113,0.127-0.193,0.285-0.24c0.796-0.216,1.615-0.436,2.457-0.66
			c0.84-0.222,1.655-0.491,2.445-0.805c0.071-0.004,0.114,0.003,0.129,0.024c0.016,0.022,0.023,0.055,0.026,0.099
			c0.001,0.018,0.001,0.044-0.001,0.08c-0.002,0.036-0.01,0.117-0.023,0.243c-0.013,0.125-0.031,0.317-0.053,0.573
			c-0.021,0.256-0.055,0.612-0.094,1.07c0.588-0.398,1.144-0.724,1.664-0.979c0.521-0.255,1.018-0.458,1.482-0.611
			c0.469-0.153,0.908-0.265,1.322-0.333c0.414-0.069,0.804-0.117,1.167-0.141c1.252-0.088,2.188,0.229,2.81,0.949
			c0.62,0.72,0.982,1.837,1.09,3.356c0.014,0.213,0.024,0.433,0.031,0.661c0.01,0.227,0.004,0.46-0.005,0.702l-0.214,5.768
			c-0.02,0.377-0.021,0.724-0.009,1.039c0.014,0.314,0.034,0.683,0.062,1.098c0.006,0.072,0.012,0.134,0.018,0.183
			c0.01,0.047,0.015,0.09,0.02,0.125c0.004,0.08-0.023,0.146-0.09,0.192c-0.062,0.05-0.206,0.117-0.432,0.203L-14.521-46.22z"/>
		<path fill="#253435" d="M-9.685-52.71c0.031-1.224,0.062-2.435,0.097-3.633c0.03-1.197,0.052-2.425,0.054-3.683
			c-0.005-0.293,0.01-0.498,0.042-0.612c0.033-0.113,0.13-0.193,0.287-0.24c0.743-0.203,1.521-0.416,2.336-0.637
			c0.815-0.221,1.601-0.488,2.354-0.799c0.027-0.011,0.063-0.019,0.117-0.022c0.099-0.007,0.149,0.025,0.155,0.097l-0.298,13.052
			c-0.007,0.295-0.023,0.498-0.051,0.61c-0.029,0.113-0.123,0.193-0.278,0.24c-0.737,0.283-1.483,0.594-2.237,0.933
			c-0.752,0.338-1.549,0.684-2.393,1.034c-0.023,0.013-0.064,0.019-0.117,0.022c-0.099,0.007-0.148-0.034-0.156-0.125
			c0-0.008,0-0.129,0.002-0.36c0-0.229,0.006-0.528,0.013-0.896s0.011-0.777,0.016-1.232s0.009-0.91,0.019-1.365
			c0.009-0.457,0.018-0.894,0.021-1.312C-9.697-52.06-9.691-52.415-9.685-52.71z M-9.423-63.405c0.002-0.384,0-0.679-0.003-0.883
			c0-0.205,0.003-0.359,0.005-0.462s0.002-0.168,0-0.194c-0.002-0.027-0.002-0.047,0-0.06c0.002-0.014,0.007-0.04,0.007-0.08
			c0.002-0.042,0.004-0.126,0.004-0.255c0-0.13,0-0.319,0.003-0.569c0-0.25,0.002-0.593,0.008-1.03c0-0.294,0.01-0.498,0.043-0.612
			c0.031-0.114,0.129-0.194,0.287-0.241c0.743-0.203,1.521-0.415,2.336-0.637c0.814-0.222,1.601-0.487,2.354-0.799
			c0.026-0.01,0.063-0.018,0.118-0.021c0.031,0.051,0.068,0.084,0.115,0.099l0.039,0.023l-0.037,3.67
			c-0.006,0.294-0.028,0.501-0.061,0.619c-0.033,0.118-0.12,0.196-0.27,0.233c-0.745,0.194-1.498,0.402-2.258,0.625
			c-0.762,0.222-1.566,0.447-2.416,0.676c-0.026,0.01-0.066,0.018-0.121,0.021C-9.363-63.276-9.415-63.316-9.423-63.405z"/>
		<path fill="#253435" d="M7.96-47.78c-0.096,0.033-0.224,0.084-0.379,0.154c-0.155,0.068-0.31,0.107-0.46,0.117
			c-0.123,0.01-0.232-0.014-0.332-0.068c-0.098-0.057-0.15-0.16-0.162-0.311l-0.005-0.08c0.021-0.484,0.036-0.893,0.047-1.229
			c0.015-0.337,0.026-0.64,0.038-0.912c0.014-0.273,0.021-0.545,0.023-0.818c0.002-0.271,0.01-0.59,0.021-0.95
			c0.012-0.362,0.021-0.792,0.037-1.288c0.016-0.497,0.031-1.115,0.052-1.857c0.013-0.456,0.022-0.92,0.024-1.393
			s-0.01-0.91-0.038-1.309c-0.019-0.266-0.056-0.511-0.111-0.734s-0.14-0.415-0.254-0.571c-0.112-0.157-0.262-0.274-0.444-0.351
			c-0.185-0.077-0.414-0.104-0.688-0.085c-0.205,0.014-0.483,0.078-0.837,0.191c-0.354,0.115-0.701,0.286-1.041,0.514
			c-0.342,0.229-0.637,0.52-0.891,0.872c-0.252,0.352-0.379,0.773-0.381,1.264c-0.007,0.661-0.018,1.226-0.027,1.694
			c-0.012,0.47-0.024,0.868-0.038,1.194c-0.015,0.327-0.022,0.592-0.031,0.797c-0.009,0.207-0.011,0.381-0.011,0.523
			C2.065-52.38,2.059-52.28,2.051-52.12c-0.007,0.16-0.014,0.354-0.02,0.576c-0.008,0.225-0.012,0.461-0.02,0.711
			c-0.004,0.25-0.009,0.488-0.016,0.711c-0.01,0.223-0.014,0.416-0.016,0.576s-0.002,0.258,0.002,0.293
			c0.004,0.072,0.012,0.133,0.019,0.18c0.009,0.049,0.015,0.096,0.019,0.141c0.004,0.07-0.024,0.134-0.09,0.187
			c-0.062,0.056-0.207,0.121-0.434,0.197l-3.443,1.457c-0.097,0.043-0.223,0.096-0.379,0.159c-0.154,0.064-0.31,0.103-0.46,0.111
			c-0.125,0.01-0.235-0.014-0.332-0.068c-0.098-0.057-0.153-0.159-0.161-0.311l0.266-13.694c0.008-0.294,0.025-0.499,0.059-0.613
			c0.031-0.113,0.127-0.193,0.285-0.24c0.797-0.216,1.615-0.436,2.456-0.658c0.841-0.224,1.655-0.493,2.444-0.806
			c0.07-0.005,0.115,0.002,0.129,0.024c0.017,0.021,0.024,0.054,0.027,0.098c0.002,0.018,0.002,0.044,0,0.08
			c-0.003,0.037-0.012,0.117-0.025,0.243c-0.014,0.125-0.03,0.317-0.053,0.573c-0.021,0.256-0.054,0.613-0.094,1.07
			c0.59-0.397,1.145-0.724,1.666-0.979s1.016-0.458,1.48-0.611c0.468-0.154,0.908-0.264,1.322-0.333
			c0.416-0.069,0.806-0.117,1.168-0.142c1.252-0.086,2.188,0.229,2.81,0.949c0.621,0.719,0.983,1.838,1.088,3.356
			c0.017,0.213,0.026,0.434,0.034,0.661c0.006,0.227,0.004,0.46-0.006,0.702l-0.215,5.768c-0.019,0.377-0.021,0.724-0.01,1.039
			c0.014,0.313,0.035,0.682,0.064,1.098c0.005,0.072,0.011,0.134,0.018,0.183c0.01,0.047,0.014,0.09,0.016,0.125
			c0.008,0.08-0.021,0.145-0.086,0.192c-0.062,0.05-0.207,0.117-0.435,0.203L7.96-47.78z"/>
		<path fill="#253435" d="M15.27-59.112c-0.102-0.047-0.182-0.079-0.24-0.098c-0.059-0.018-0.143-0.05-0.248-0.095
			c-0.104-0.047-0.26-0.114-0.467-0.203c-0.207-0.088-0.51-0.225-0.905-0.412c-0.296-0.131-0.445-0.246-0.452-0.344
			c-0.002-0.027,0.009-0.062,0.031-0.109c0.23-0.417,0.47-0.855,0.719-1.315c0.249-0.458,0.486-0.923,0.714-1.394l-1.135,0.065
			L13.049-63c-0.125,0.008-0.229,0.009-0.31,0.001c-0.08-0.008-0.122-0.043-0.128-0.104L12.61-63.13
			c0.01-0.385,0.019-0.687,0.024-0.905c0.007-0.219,0.011-0.389,0.011-0.51c0-0.12,0.002-0.207,0.002-0.26
			c0-0.053,0.004-0.104,0.004-0.148c0.002-0.044,0.002-0.098,0.002-0.16s0-0.17-0.002-0.321c0-0.151,0-0.359,0.004-0.622
			c0.005-0.264,0.009-0.614,0.014-1.052c-0.002-0.293,0.014-0.5,0.045-0.618c0.03-0.118,0.126-0.191,0.286-0.22
			c0.397-0.028,0.815-0.059,1.251-0.094c0.434-0.034,0.867-0.069,1.297-0.104c0.432-0.034,0.855-0.065,1.279-0.096
			c0.42-0.029,0.826-0.057,1.217-0.084c0.15-0.01,0.232,0.091,0.249,0.304l-0.015,3.266c-0.012,0.207-0.025,0.377-0.036,0.512
			c-0.015,0.134-0.027,0.258-0.043,0.37c-0.013,0.112-0.033,0.224-0.058,0.332c-0.022,0.109-0.052,0.236-0.088,0.381
			c-0.044,0.128-0.121,0.296-0.232,0.504c-0.109,0.209-0.235,0.434-0.381,0.675c-0.146,0.243-0.293,0.487-0.451,0.734
			c-0.155,0.247-0.303,0.48-0.438,0.7c-0.138,0.219-0.258,0.408-0.362,0.567c-0.104,0.159-0.174,0.266-0.205,0.322
			c-0.023,0.038-0.056,0.086-0.09,0.146c-0.037,0.06-0.078,0.122-0.127,0.183c-0.05,0.062-0.104,0.117-0.162,0.166
			c-0.062,0.049-0.121,0.076-0.184,0.079C15.375-59.08,15.326-59.089,15.27-59.112z"/>
	</g>
	<g>
		<path fill="#253435" d="M17.299-46.114c-0.037,0.564-0.068,1.127-0.098,1.689c-0.027,0.561-0.031,1.082-0.014,1.568
			c0.016,0.207,0.041,0.379,0.082,0.514c0.043,0.137,0.099,0.242,0.164,0.318c0.066,0.075,0.144,0.129,0.229,0.157
			c0.086,0.027,0.187,0.037,0.293,0.031c0.169-0.013,0.354-0.049,0.554-0.115c0.196-0.063,0.396-0.146,0.59-0.237
			c0.064-0.031,0.116-0.054,0.16-0.068c0.045-0.018,0.082-0.029,0.113-0.031c0.055-0.004,0.094,0.018,0.113,0.064
			c0.025,0.047,0.047,0.131,0.074,0.25c0.025,0.119,0.067,0.277,0.116,0.477c0.052,0.197,0.13,0.449,0.238,0.752
			c0.007,0.027,0.012,0.051,0.017,0.068c0.004,0.018,0.006,0.035,0.008,0.051c0.006,0.074-0.02,0.129-0.072,0.166
			c-0.055,0.035-0.143,0.078-0.27,0.131c-0.211,0.09-0.437,0.18-0.675,0.275c-0.235,0.094-0.472,0.18-0.7,0.26
			c-0.236,0.082-0.459,0.15-0.675,0.205c-0.213,0.055-0.403,0.086-0.569,0.1c-0.89,0.062-1.555-0.117-1.99-0.527
			c-0.436-0.416-0.688-1.073-0.749-1.977c-0.013-0.156-0.019-0.314-0.017-0.477c-0.002-0.164,0-0.336,0.004-0.512
			c0.017-0.537,0.027-1.041,0.033-1.521c0.008-0.479,0.02-0.938,0.029-1.377l-0.839,0.059c-0.287,0.021-0.494,0.021-0.625,0.006
			c-0.13-0.016-0.195-0.061-0.2-0.133c-0.002-0.021,0.02-0.082,0.066-0.178c0.049-0.098,0.106-0.213,0.181-0.35
			c0.073-0.137,0.151-0.283,0.237-0.438s0.166-0.301,0.246-0.438c0.08-0.137,0.147-0.256,0.203-0.354
			c0.059-0.101,0.094-0.162,0.108-0.185l0.567-0.039c0.019-0.407,0.033-0.75,0.045-1.024c0.011-0.276,0.018-0.506,0.023-0.688
			c0.004-0.184,0.014-0.323,0.024-0.424c0.007-0.1,0.019-0.174,0.034-0.223c0.015-0.049,0.037-0.08,0.064-0.096
			s0.067-0.031,0.116-0.045c0.233-0.064,0.463-0.125,0.683-0.18c0.221-0.056,0.443-0.111,0.662-0.173
			c0.223-0.057,0.446-0.12,0.674-0.192s0.461-0.154,0.709-0.246c0.015-0.002,0.024-0.004,0.031-0.008
			c0.004-0.002,0.016-0.004,0.031-0.004c0.062-0.006,0.096,0.014,0.098,0.057l0.002,0.016c-0.007,0.295-0.02,0.705-0.037,1.23
			c-0.021,0.522-0.043,1.119-0.064,1.785l2.139-0.15c0.043-0.002,0.084,0.01,0.127,0.037c0.039,0.025,0.066,0.074,0.07,0.143
			c0.003,0.027-0.023,0.125-0.077,0.295c-0.052,0.168-0.127,0.391-0.225,0.666l-0.245,0.666c-0.029,0.082-0.064,0.143-0.104,0.184
			c-0.037,0.039-0.115,0.07-0.24,0.089L17.299-46.114z"/>
		<path fill="#253435" d="M24.516-40.015c-0.752,0.053-1.416-0.023-2.002-0.229c-0.582-0.207-1.078-0.498-1.492-0.877
			c-0.41-0.383-0.729-0.83-0.959-1.346c-0.228-0.519-0.362-1.062-0.402-1.632c-0.04-0.567,0.016-1.116,0.167-1.641
			c0.151-0.529,0.38-1.006,0.685-1.436c0.311-0.432,0.687-0.799,1.139-1.105c0.445-0.307,0.953-0.529,1.51-0.664
			c0.085-0.01,0.125-0.031,0.123-0.063c-0.006-0.058-0.014-0.113-0.031-0.162c-0.016-0.049-0.027-0.093-0.029-0.129
			c-0.004-0.062,0.006-0.103,0.024-0.123c0.021-0.022,0.042-0.035,0.069-0.035c1.017-0.071,1.891-0.017,2.615,0.166
			c0.731,0.183,1.332,0.457,1.808,0.824c0.476,0.368,0.831,0.815,1.073,1.346c0.238,0.529,0.381,1.104,0.424,1.729
			c0.056,0.791-0.029,1.506-0.252,2.147c-0.226,0.64-0.553,1.193-0.979,1.656c-0.432,0.463-0.944,0.83-1.544,1.101
			C25.862-40.22,25.212-40.062,24.516-40.015z M22.727-44.397c0.021,0.287,0.069,0.572,0.151,0.851
			c0.08,0.276,0.2,0.524,0.356,0.744c0.154,0.219,0.354,0.393,0.594,0.516c0.238,0.127,0.527,0.177,0.87,0.152
			c0.241-0.029,0.45-0.097,0.629-0.207c0.179-0.111,0.327-0.25,0.446-0.416c0.123-0.166,0.224-0.354,0.295-0.556
			c0.076-0.203,0.131-0.41,0.166-0.623c0.039-0.215,0.059-0.424,0.064-0.629c0.008-0.203,0.008-0.387-0.005-0.551
			c-0.021-0.277-0.08-0.547-0.183-0.807c-0.1-0.26-0.235-0.484-0.409-0.676c-0.173-0.193-0.386-0.342-0.629-0.451
			c-0.247-0.109-0.523-0.15-0.832-0.131c-0.32,0.022-0.581,0.135-0.785,0.34c-0.205,0.205-0.365,0.449-0.478,0.734
			c-0.108,0.285-0.185,0.582-0.223,0.893C22.721-44.903,22.711-44.63,22.727-44.397z"/>
	</g>
</g>
<g>
	<g>
		<path fill="#253435" d="M70.279,29.219c0.005,0.157,0.005,0.35,0.003,0.581c-0.004,0.231-0.008,0.477-0.013,0.731
			c-0.007,0.26-0.014,0.521-0.025,0.784c-0.01,0.265-0.021,0.509-0.028,0.731c-0.007,0.221-0.012,0.413-0.013,0.572
			c-0.002,0.16-0.001,0.261,0,0.307c0.004,0.404,0.001,0.778-0.004,1.123c-0.006,0.346-0.012,0.688-0.021,1.028
			c-0.009,0.339-0.019,0.688-0.03,1.053c-0.012,0.362-0.021,0.759-0.029,1.198c-0.009,0.438-0.02,0.922-0.03,1.458
			c-0.012,0.532-0.019,1.146-0.024,1.837l3.997-0.686c0.18-0.032,0.329-0.054,0.446-0.062c0.142-0.01,0.232,0.006,0.27,0.05
			c0.041,0.042,0.063,0.109,0.07,0.209c0,0.014,0,0.031-0.007,0.057c-0.005,0.021-0.015,0.065-0.033,0.13
			c-0.02,0.068-0.044,0.166-0.078,0.292c-0.034,0.125-0.08,0.302-0.135,0.525l-0.17,0.655c-0.055,0.214-0.108,0.407-0.159,0.572
			c-0.051,0.172-0.117,0.319-0.199,0.446c-0.082,0.126-0.189,0.229-0.32,0.31c-0.13,0.08-0.303,0.139-0.515,0.172
			c-0.135,0.022-0.318,0.047-0.553,0.071c-0.229,0.029-0.501,0.058-0.804,0.085c-0.303,0.032-0.632,0.067-0.983,0.106
			c-0.353,0.035-0.713,0.077-1.081,0.121c-0.361,0.04-0.728,0.073-1.096,0.101c-0.369,0.031-0.719,0.059-1.049,0.088
			c-0.332,0.029-0.635,0.059-0.913,0.083c-0.277,0.028-0.508,0.049-0.689,0.068c-0.167,0.012-0.291,0.008-0.367-0.015
			c-0.076-0.021-0.117-0.06-0.121-0.118c-0.004-0.072,0.011-0.175,0.046-0.311c0.037-0.136,0.086-0.289,0.145-0.463
			c0.061-0.167,0.127-0.346,0.202-0.529c0.074-0.184,0.149-0.363,0.221-0.537l0.022-3.487c0.01-0.596,0.021-1.199,0.031-1.81
			c0.009-0.614,0.013-1.206,0.013-1.78l-0.014-2.587c-0.003-0.612-0.008-1.056-0.015-1.333c-0.005-0.275-0.009-0.427-0.012-0.452
			c0.006-0.118,0.007-0.215,0.009-0.295c0.001-0.076,0.009-0.143,0.02-0.196c0.014-0.053,0.035-0.094,0.065-0.124
			c0.03-0.026,0.077-0.05,0.143-0.067l3.354-1.043c0.07-0.03,0.159-0.052,0.26-0.058c0.072-0.004,0.124,0.014,0.156,0.053
			c0.033,0.039,0.052,0.12,0.061,0.236c0.001,0.012,0.001,0.03-0.001,0.053C70.278,29.178,70.278,29.199,70.279,29.219z"/>
		<path fill="#253435" d="M75.404,38.719c0.022-0.895,0.044-1.778,0.069-2.654c0.023-0.873,0.037-1.77,0.038-2.688
			c-0.002-0.216,0.009-0.364,0.032-0.447c0.024-0.083,0.093-0.141,0.208-0.174c0.542-0.15,1.113-0.304,1.708-0.466
			s1.167-0.357,1.717-0.583c0.018-0.007,0.049-0.014,0.086-0.016c0.073-0.005,0.108,0.019,0.113,0.072l-0.219,9.529
			c-0.002,0.213-0.016,0.362-0.038,0.445c-0.02,0.083-0.086,0.141-0.201,0.174c-0.541,0.207-1.085,0.434-1.634,0.68
			c-0.549,0.248-1.13,0.498-1.744,0.761c-0.019,0.005-0.049,0.01-0.087,0.013c-0.072,0.005-0.109-0.024-0.114-0.092
			c0-0.003,0-0.092,0.001-0.261c0-0.17,0.004-0.389,0.009-0.653c0.003-0.268,0.008-0.567,0.011-0.901
			c0.001-0.331,0.008-0.663,0.013-0.997c0.005-0.33,0.012-0.651,0.017-0.959C75.394,39.193,75.398,38.933,75.404,38.719z
			 M75.592,30.909c0.001-0.279,0-0.493,0-0.643c0-0.148,0-0.261,0.001-0.337c0.001-0.076,0.001-0.12,0-0.139
			c-0.001-0.022-0.001-0.036,0.001-0.046c0.002-0.008,0.004-0.028,0.007-0.058c0.001-0.03,0.002-0.093,0.002-0.186
			c0-0.095,0-0.233,0-0.417c0-0.182,0.002-0.431,0.007-0.752c-0.001-0.214,0.009-0.364,0.032-0.445
			c0.023-0.083,0.093-0.142,0.207-0.177c0.545-0.148,1.114-0.304,1.707-0.465c0.594-0.161,1.166-0.354,1.719-0.583
			c0.02-0.009,0.049-0.012,0.086-0.016c0.022,0.036,0.051,0.06,0.084,0.071l0.029,0.018l-0.029,2.677
			c-0.004,0.215-0.018,0.367-0.04,0.454c-0.023,0.086-0.09,0.143-0.198,0.169c-0.544,0.141-1.094,0.295-1.648,0.456
			c-0.556,0.164-1.144,0.327-1.763,0.492c-0.02,0.011-0.049,0.015-0.087,0.018C75.637,31.004,75.597,30.976,75.592,30.909z"/>
		<path fill="#253435" d="M80.052,39.84c0-0.003-0.002-0.012-0.004-0.013c-0.002-0.005-0.007-0.008-0.007-0.015
			c-0.004-0.085,0.038-0.129,0.128-0.139c0.058-0.003,0.11,0.019,0.159,0.059c0.276,0.228,0.586,0.411,0.933,0.542
			c0.345,0.131,0.709,0.185,1.099,0.158c0.105-0.008,0.225-0.027,0.355-0.059c0.137-0.032,0.263-0.078,0.382-0.139
			c0.12-0.062,0.219-0.137,0.294-0.229c0.073-0.096,0.106-0.205,0.098-0.336c-0.009-0.142-0.053-0.271-0.133-0.386
			c-0.082-0.116-0.184-0.207-0.305-0.278c-0.07-0.038-0.188-0.111-0.355-0.212c-0.171-0.103-0.354-0.213-0.546-0.33
			c-0.192-0.118-0.376-0.228-0.551-0.334c-0.174-0.104-0.296-0.18-0.362-0.226c-0.307-0.201-0.555-0.41-0.742-0.623
			c-0.188-0.216-0.336-0.442-0.444-0.678c-0.105-0.236-0.181-0.488-0.226-0.751c-0.044-0.265-0.077-0.543-0.097-0.843
			c-0.031-0.453,0.06-0.89,0.27-1.307c0.212-0.42,0.504-0.794,0.875-1.126s0.8-0.604,1.286-0.816
			c0.486-0.215,0.989-0.339,1.507-0.375c0.429-0.031,0.855,0.007,1.279,0.106c0.424,0.103,0.822,0.295,1.202,0.581
			c0.06,0.406,0.11,0.807,0.152,1.201c0.04,0.394,0.089,0.807,0.144,1.24c0.007,0.083-0.009,0.143-0.046,0.175
			c-0.036,0.032-0.08,0.049-0.133,0.053c-0.044,0.003-0.086-0.011-0.122-0.039c-0.158-0.134-0.317-0.265-0.485-0.393
			c-0.164-0.128-0.339-0.24-0.516-0.335c-0.181-0.096-0.368-0.17-0.572-0.223c-0.194-0.057-0.404-0.076-0.627-0.061
			c-0.135,0.009-0.272,0.028-0.404,0.061c-0.138,0.033-0.254,0.084-0.36,0.153c-0.106,0.069-0.19,0.157-0.252,0.267
			c-0.062,0.109-0.084,0.244-0.073,0.406c0.012,0.188,0.047,0.348,0.102,0.48c0.056,0.134,0.173,0.258,0.35,0.378l1.892,1.1
			c0.347,0.203,0.63,0.405,0.849,0.607c0.221,0.203,0.396,0.409,0.527,0.614c0.131,0.208,0.224,0.414,0.281,0.621
			c0.055,0.209,0.091,0.416,0.105,0.623c0.042,0.585-0.057,1.107-0.296,1.568c-0.236,0.462-0.562,0.855-0.968,1.18
			s-0.877,0.581-1.405,0.773c-0.53,0.189-1.069,0.302-1.61,0.342c-0.418,0.027-0.82,0.013-1.211-0.049
			c-0.394-0.058-0.761-0.169-1.104-0.329L80.052,39.84z"/>
		<path fill="#253435" d="M92.375,34.151c-0.044,0.687-0.081,1.37-0.114,2.052c-0.035,0.685-0.042,1.322-0.021,1.914
			c0.019,0.25,0.054,0.461,0.103,0.625c0.051,0.165,0.116,0.297,0.198,0.389c0.082,0.089,0.175,0.154,0.283,0.188
			c0.105,0.033,0.221,0.048,0.352,0.041c0.21-0.017,0.433-0.062,0.676-0.141c0.238-0.079,0.484-0.174,0.723-0.289
			c0.075-0.036,0.139-0.065,0.194-0.086c0.051-0.021,0.098-0.032,0.14-0.035c0.062-0.004,0.107,0.021,0.137,0.077
			c0.024,0.059,0.058,0.159,0.088,0.303c0.031,0.145,0.082,0.338,0.144,0.582c0.062,0.242,0.159,0.549,0.288,0.916
			c0.011,0.032,0.018,0.061,0.021,0.082c0.005,0.022,0.007,0.046,0.009,0.063c0.009,0.088-0.021,0.158-0.088,0.199
			c-0.066,0.048-0.177,0.1-0.327,0.161c-0.259,0.107-0.532,0.222-0.822,0.335c-0.287,0.117-0.574,0.221-0.855,0.32
			c-0.282,0.096-0.554,0.18-0.817,0.245c-0.265,0.066-0.495,0.106-0.695,0.124c-1.083,0.074-1.89-0.141-2.422-0.644
			c-0.533-0.505-0.84-1.307-0.915-2.408c-0.014-0.188-0.021-0.381-0.022-0.579c0-0.2,0.002-0.406,0.009-0.622
			c0.018-0.654,0.031-1.271,0.042-1.854c0.007-0.583,0.018-1.143,0.035-1.678l-1.021,0.07c-0.349,0.025-0.604,0.029-0.763,0.011
			c-0.156-0.021-0.238-0.075-0.245-0.166c-0.002-0.025,0.026-0.098,0.082-0.216c0.058-0.118,0.131-0.257,0.219-0.423
			c0.093-0.166,0.188-0.343,0.289-0.533c0.104-0.189,0.206-0.368,0.301-0.534c0.095-0.166,0.182-0.311,0.25-0.433
			c0.07-0.122,0.115-0.199,0.13-0.224l0.692-0.049c0.023-0.497,0.042-0.912,0.053-1.247c0.013-0.335,0.024-0.617,0.031-0.839
			c0.006-0.22,0.018-0.392,0.028-0.514c0.009-0.122,0.026-0.211,0.044-0.272c0.018-0.06,0.045-0.099,0.08-0.116
			c0.035-0.02,0.079-0.037,0.137-0.053c0.289-0.081,0.565-0.155,0.835-0.22c0.27-0.069,0.537-0.137,0.807-0.209
			c0.27-0.068,0.542-0.15,0.82-0.238c0.275-0.085,0.563-0.187,0.861-0.296c0.02-0.002,0.031-0.006,0.038-0.007
			c0.006-0.005,0.018-0.007,0.039-0.01c0.075-0.004,0.119,0.018,0.122,0.07l0.002,0.021c-0.009,0.359-0.024,0.855-0.049,1.498
			c-0.024,0.639-0.051,1.364-0.079,2.172l2.604-0.18c0.052-0.004,0.104,0.012,0.155,0.044s0.077,0.09,0.084,0.175
			c0.004,0.032-0.029,0.152-0.091,0.357c-0.064,0.207-0.157,0.477-0.276,0.811l-0.296,0.812c-0.037,0.101-0.079,0.175-0.124,0.224
			c-0.046,0.046-0.141,0.083-0.289,0.108L92.375,34.151z"/>
		<path fill="#253435" d="M100.443,30.224c0.616-0.046,1.182,0.032,1.701,0.226c0.517,0.194,0.97,0.463,1.353,0.805
			c0.387,0.339,0.691,0.731,0.917,1.17c0.228,0.44,0.357,0.889,0.384,1.34c0.029,0.399-0.065,0.814-0.282,1.236
			c-0.219,0.422-0.539,0.809-0.959,1.166c-0.42,0.353-0.938,0.653-1.545,0.897c-0.607,0.246-1.283,0.393-2.03,0.445
			c-0.387,0.028-0.8,0.016-1.233-0.032c0.047,0.279,0.144,0.511,0.292,0.703c0.15,0.192,0.333,0.345,0.552,0.458
			c0.213,0.117,0.458,0.194,0.723,0.238c0.268,0.045,0.539,0.056,0.818,0.038c0.312-0.021,0.607-0.072,0.895-0.146
			c0.283-0.076,0.557-0.168,0.815-0.277c0.259-0.106,0.508-0.226,0.744-0.354c0.241-0.126,0.467-0.254,0.679-0.378
			c0.058-0.018,0.106-0.033,0.148-0.045c0.042-0.01,0.081-0.019,0.121-0.025c0.009,0.211,0.018,0.409,0.031,0.595
			c0.013,0.188,0.028,0.416,0.042,0.682c0.016,0.267,0.033,0.562,0.049,0.885c0.02,0.032,0.035,0.063,0.044,0.096
			c0.011,0.032,0.013,0.056,0.016,0.074c0.004,0.081-0.06,0.17-0.199,0.268c-0.135,0.104-0.316,0.209-0.537,0.322
			c-0.223,0.112-0.479,0.227-0.767,0.337c-0.289,0.111-0.583,0.214-0.884,0.312c-0.301,0.095-0.59,0.172-0.873,0.234
			c-0.28,0.063-0.528,0.101-0.744,0.117c-0.698,0.045-1.386-0.029-2.062-0.224c-0.675-0.197-1.282-0.506-1.823-0.925
			c-0.537-0.42-0.981-0.943-1.333-1.567c-0.349-0.626-0.552-1.345-0.609-2.156c-0.058-0.849,0.031-1.654,0.271-2.417
			c0.241-0.761,0.607-1.436,1.097-2.025c0.49-0.587,1.089-1.063,1.801-1.434C98.768,30.499,99.562,30.284,100.443,30.224z
			 M100.507,32.816c-0.268,0.018-0.508,0.092-0.723,0.221c-0.216,0.128-0.411,0.305-0.578,0.528
			c-0.171,0.223-0.314,0.486-0.429,0.791c-0.115,0.304-0.204,0.638-0.266,1c0.661-0.163,1.206-0.323,1.64-0.484
			c0.431-0.161,0.773-0.316,1.032-0.468c0.256-0.15,0.435-0.297,0.536-0.44c0.103-0.138,0.146-0.27,0.138-0.393
			c-0.007-0.119-0.06-0.225-0.152-0.322c-0.096-0.097-0.213-0.18-0.345-0.251c-0.138-0.067-0.281-0.118-0.438-0.15
			C100.766,32.819,100.629,32.807,100.507,32.816z"/>
		<path fill="#253435" d="M113.398,40.573c-0.066,0.022-0.159,0.062-0.274,0.113c-0.112,0.047-0.226,0.077-0.333,0.085
			c-0.091,0.007-0.173-0.009-0.246-0.052c-0.07-0.039-0.107-0.115-0.117-0.226l-0.004-0.057c0.016-0.354,0.024-0.654,0.035-0.899
			c0.011-0.244,0.018-0.468,0.026-0.666c0.012-0.197,0.016-0.398,0.016-0.597c0.005-0.197,0.009-0.429,0.018-0.694
			c0.009-0.263,0.016-0.578,0.026-0.938c0.012-0.363,0.024-0.815,0.038-1.355c0.011-0.332,0.016-0.671,0.018-1.017
			c0.005-0.346-0.007-0.664-0.028-0.957c-0.012-0.195-0.038-0.371-0.08-0.533c-0.04-0.165-0.102-0.304-0.186-0.419
			c-0.079-0.115-0.19-0.199-0.325-0.256c-0.132-0.057-0.3-0.078-0.501-0.064c-0.148,0.011-0.352,0.059-0.61,0.142
			c-0.258,0.081-0.513,0.207-0.76,0.375c-0.25,0.166-0.467,0.379-0.649,0.636c-0.184,0.257-0.274,0.565-0.278,0.925
			c-0.007,0.48-0.014,0.893-0.022,1.234c-0.009,0.344-0.018,0.634-0.026,0.871c-0.011,0.241-0.018,0.435-0.022,0.583
			c-0.007,0.151-0.011,0.276-0.009,0.382c-0.004,0.026-0.009,0.1-0.016,0.218c-0.006,0.116-0.009,0.257-0.016,0.42
			c-0.004,0.162-0.009,0.336-0.011,0.518c-0.004,0.182-0.009,0.355-0.016,0.521c-0.004,0.16-0.006,0.302-0.009,0.42
			c0,0.117,0,0.188,0,0.212c0.005,0.054,0.009,0.1,0.016,0.132c0.005,0.036,0.011,0.069,0.011,0.104
			c0.005,0.051-0.018,0.098-0.063,0.137c-0.047,0.038-0.152,0.088-0.316,0.143l-2.515,1.064c-0.068,0.03-0.161,0.068-0.278,0.117
			c-0.112,0.045-0.226,0.074-0.333,0.081c-0.091,0.008-0.171-0.011-0.241-0.05c-0.075-0.042-0.113-0.118-0.122-0.228L105.389,31
			c0.004-0.215,0.02-0.363,0.044-0.446s0.093-0.14,0.207-0.175c0.582-0.159,1.181-0.318,1.795-0.482
			c0.609-0.161,1.206-0.358,1.785-0.588c0.051-0.003,0.082,0.004,0.093,0.018c0.011,0.016,0.018,0.041,0.022,0.071
			c0,0.015,0,0.034-0.005,0.061c0,0.024-0.007,0.084-0.016,0.176s-0.024,0.233-0.039,0.42c-0.016,0.184-0.04,0.445-0.069,0.781
			c0.429-0.291,0.836-0.53,1.216-0.715c0.382-0.185,0.742-0.333,1.083-0.446c0.34-0.113,0.663-0.193,0.965-0.244
			c0.303-0.05,0.586-0.085,0.852-0.103c0.914-0.063,1.6,0.168,2.053,0.692c0.45,0.526,0.716,1.342,0.793,2.451
			c0.011,0.155,0.018,0.316,0.026,0.484c0.007,0.166,0,0.335-0.009,0.512l-0.154,4.21c-0.014,0.275-0.014,0.528-0.005,0.757
			c0.009,0.231,0.026,0.498,0.044,0.802c0.007,0.053,0.009,0.098,0.014,0.133c0.007,0.035,0.011,0.067,0.014,0.092
			c0.004,0.06-0.019,0.105-0.066,0.142c-0.047,0.035-0.148,0.085-0.314,0.147L113.398,40.573z"/>
		<path fill="#253435" d="M116.932,35.835c0.024-0.893,0.044-1.778,0.07-2.652c0.021-0.872,0.038-1.769,0.038-2.688
			c-0.003-0.215,0.007-0.363,0.033-0.448c0.024-0.082,0.095-0.139,0.207-0.173c0.544-0.148,1.112-0.304,1.706-0.466
			c0.597-0.161,1.169-0.357,1.72-0.583c0.018-0.007,0.046-0.014,0.086-0.018c0.07-0.003,0.108,0.02,0.112,0.072l-0.219,9.529
			c-0.004,0.213-0.016,0.362-0.035,0.445c-0.022,0.083-0.093,0.142-0.205,0.177c-0.537,0.206-1.081,0.432-1.634,0.68
			c-0.545,0.247-1.129,0.498-1.747,0.755c-0.014,0.01-0.045,0.013-0.084,0.015c-0.071,0.007-0.11-0.024-0.113-0.091
			c0-0.004,0-0.093,0-0.263c0-0.168,0.003-0.385,0.012-0.652c0.002-0.269,0.006-0.569,0.009-0.899
			c0.004-0.334,0.009-0.666,0.015-0.998c0.007-0.333,0.014-0.653,0.014-0.957C116.923,36.31,116.927,36.052,116.932,35.835z
			 M117.121,28.029c0.005-0.281,0-0.497,0-0.645c0-0.15,0-0.261,0.005-0.338c0-0.076,0-0.122,0-0.141
			c-0.005-0.02-0.005-0.034,0-0.044c0-0.011,0.002-0.028,0.002-0.06c0-0.028,0.005-0.092,0.005-0.184c0-0.095,0-0.233,0.002-0.417
			c0-0.182,0-0.433,0.005-0.752c0-0.211,0.006-0.363,0.03-0.444c0.022-0.085,0.096-0.143,0.21-0.177
			c0.544-0.148,1.111-0.304,1.706-0.466c0.597-0.163,1.169-0.355,1.719-0.583c0.018-0.006,0.047-0.014,0.084-0.014
			c0.024,0.037,0.051,0.06,0.087,0.071l0.026,0.018l-0.026,2.68c-0.005,0.212-0.018,0.364-0.045,0.449
			c-0.024,0.088-0.086,0.145-0.196,0.173c-0.544,0.142-1.092,0.293-1.646,0.454c-0.557,0.164-1.145,0.327-1.766,0.496
			c-0.018,0.007-0.048,0.01-0.088,0.014C117.168,28.122,117.128,28.094,117.121,28.029z"/>
		<path fill="#253435" d="M129.812,39.435c-0.068,0.024-0.163,0.062-0.276,0.112c-0.112,0.05-0.225,0.078-0.336,0.085
			c-0.088,0.007-0.17-0.009-0.243-0.049c-0.07-0.041-0.11-0.117-0.116-0.229l-0.005-0.058c0.016-0.354,0.028-0.65,0.035-0.897
			c0.012-0.244,0.018-0.466,0.029-0.664c0.006-0.199,0.015-0.399,0.015-0.599c0.003-0.196,0.007-0.428,0.019-0.693
			c0.006-0.263,0.013-0.579,0.023-0.939c0.014-0.364,0.024-0.812,0.038-1.356c0.011-0.332,0.018-0.671,0.018-1.016
			c0.005-0.346-0.007-0.666-0.026-0.956c-0.011-0.194-0.04-0.374-0.082-0.536c-0.04-0.163-0.104-0.302-0.184-0.417
			c-0.081-0.115-0.194-0.201-0.324-0.255c-0.135-0.059-0.306-0.077-0.506-0.062c-0.148,0.01-0.35,0.056-0.608,0.139
			c-0.261,0.083-0.513,0.209-0.758,0.375c-0.252,0.168-0.466,0.379-0.654,0.638c-0.183,0.258-0.275,0.565-0.275,0.922
			c-0.007,0.484-0.014,0.895-0.021,1.236c-0.009,0.342-0.018,0.636-0.028,0.872c-0.011,0.24-0.016,0.433-0.022,0.583
			c-0.007,0.152-0.011,0.277-0.011,0.382c-0.002,0.024-0.007,0.098-0.014,0.214c-0.006,0.117-0.011,0.259-0.013,0.42
			c-0.005,0.164-0.009,0.338-0.016,0.52c-0.002,0.185-0.007,0.358-0.011,0.519c-0.007,0.164-0.009,0.305-0.009,0.421
			c-0.005,0.115-0.005,0.188,0,0.213c0.002,0.053,0.006,0.098,0.013,0.133s0.011,0.069,0.014,0.103
			c0.004,0.051-0.021,0.098-0.066,0.134c-0.047,0.043-0.152,0.091-0.318,0.145l-2.51,1.064c-0.075,0.03-0.164,0.07-0.279,0.115
			c-0.11,0.05-0.228,0.076-0.335,0.082c-0.093,0.007-0.171-0.009-0.246-0.05c-0.068-0.042-0.107-0.117-0.114-0.227l0.194-9.996
			c0.007-0.215,0.018-0.366,0.044-0.449c0.022-0.081,0.093-0.14,0.206-0.175c0.583-0.157,1.18-0.317,1.794-0.48
			c0.614-0.162,1.209-0.358,1.783-0.588c0.053-0.003,0.086,0.002,0.095,0.018c0.011,0.016,0.018,0.041,0.018,0.072
			c0.005,0.013,0.005,0.032,0,0.057c0,0.028-0.007,0.086-0.018,0.179c-0.009,0.09-0.02,0.231-0.037,0.418
			c-0.016,0.188-0.04,0.447-0.068,0.781c0.431-0.29,0.837-0.528,1.215-0.713c0.382-0.187,0.742-0.336,1.08-0.447
			c0.343-0.112,0.666-0.193,0.969-0.242c0.3-0.051,0.587-0.086,0.851-0.106c0.914-0.06,1.598,0.17,2.053,0.694
			c0.453,0.525,0.716,1.344,0.791,2.45c0.013,0.155,0.021,0.317,0.024,0.484c0.006,0.166,0.006,0.335-0.003,0.512l-0.156,4.211
			c-0.014,0.274-0.014,0.527-0.007,0.758c0.011,0.229,0.024,0.5,0.046,0.802c0.003,0.053,0.007,0.097,0.014,0.133
			c0.007,0.032,0.011,0.064,0.011,0.091c0.007,0.059-0.013,0.106-0.063,0.14c-0.042,0.035-0.148,0.085-0.318,0.149L129.812,39.435z"
			/>
		<path fill="#253435" d="M135.148,31.163c-0.075-0.035-0.133-0.059-0.175-0.071c-0.042-0.014-0.106-0.039-0.184-0.07
			c-0.073-0.036-0.188-0.083-0.338-0.149c-0.152-0.063-0.376-0.164-0.665-0.3c-0.212-0.096-0.32-0.18-0.327-0.251
			c0-0.021,0.007-0.046,0.024-0.08c0.165-0.305,0.342-0.625,0.521-0.962c0.184-0.332,0.357-0.671,0.523-1.017l-0.831,0.049
			l-0.172,0.011c-0.093,0.007-0.166,0.007-0.226,0.002c-0.058-0.007-0.089-0.032-0.093-0.076l-0.002-0.021
			c0.009-0.28,0.013-0.5,0.018-0.661c0.007-0.158,0.009-0.282,0.009-0.371s0-0.152,0-0.19c0-0.04,0.004-0.078,0.004-0.108
			c0-0.034,0-0.071,0-0.118c0-0.042,0-0.124,0-0.233c0-0.11,0-0.261,0.005-0.453c0.002-0.194,0.007-0.45,0.009-0.77
			c-0.002-0.214,0.009-0.364,0.033-0.451c0.02-0.086,0.091-0.139,0.208-0.16c0.289-0.021,0.596-0.042,0.914-0.071
			c0.314-0.023,0.632-0.05,0.946-0.075c0.315-0.024,0.623-0.049,0.933-0.07c0.307-0.022,0.605-0.043,0.89-0.061
			c0.111-0.007,0.171,0.067,0.182,0.223l-0.011,2.384c-0.007,0.15-0.018,0.276-0.024,0.371c-0.012,0.099-0.022,0.191-0.033,0.272
			s-0.024,0.163-0.042,0.244c-0.018,0.077-0.04,0.171-0.064,0.275c-0.035,0.096-0.091,0.218-0.168,0.37
			c-0.081,0.154-0.174,0.316-0.28,0.492c-0.106,0.177-0.215,0.355-0.331,0.537c-0.113,0.18-0.22,0.35-0.318,0.51
			c-0.102,0.161-0.19,0.298-0.266,0.415c-0.073,0.117-0.126,0.194-0.147,0.233c-0.019,0.028-0.042,0.063-0.066,0.108
			c-0.029,0.044-0.058,0.088-0.093,0.132c-0.038,0.046-0.078,0.084-0.12,0.122c-0.042,0.036-0.088,0.055-0.13,0.059
			C135.226,31.184,135.19,31.181,135.148,31.163z"/>
	</g>
	<g>
		<path fill="#253435" d="M120.239,44.64c-0.028,0.413-0.049,0.823-0.07,1.235c-0.021,0.407-0.021,0.791-0.012,1.142
			c0.012,0.154,0.033,0.279,0.062,0.378c0.03,0.098,0.072,0.177,0.119,0.231c0.049,0.056,0.106,0.095,0.166,0.114
			c0.063,0.021,0.137,0.027,0.216,0.023c0.124-0.008,0.257-0.035,0.402-0.083c0.144-0.047,0.29-0.105,0.434-0.173
			c0.046-0.024,0.081-0.041,0.117-0.051c0.033-0.013,0.057-0.021,0.081-0.023c0.038-0.003,0.066,0.015,0.082,0.048
			c0.02,0.033,0.035,0.095,0.056,0.182c0.018,0.086,0.051,0.203,0.086,0.35c0.035,0.145,0.095,0.327,0.172,0.548
			c0.003,0.019,0.007,0.038,0.012,0.049c0.002,0.014,0.006,0.026,0.006,0.041c0.003,0.053-0.015,0.094-0.053,0.118
			c-0.04,0.026-0.102,0.056-0.198,0.097c-0.15,0.064-0.316,0.131-0.491,0.2c-0.172,0.067-0.345,0.13-0.513,0.19
			c-0.172,0.058-0.333,0.107-0.49,0.148c-0.159,0.04-0.296,0.062-0.415,0.074c-0.65,0.044-1.134-0.087-1.452-0.387
			c-0.318-0.304-0.506-0.782-0.553-1.442c-0.007-0.113-0.009-0.231-0.009-0.349c0-0.12,0-0.245,0.002-0.372
			c0.016-0.395,0.022-0.762,0.024-1.11c0.009-0.353,0.016-0.687,0.022-1.008l-0.609,0.043c-0.213,0.016-0.365,0.018-0.46,0.004
			c-0.093-0.012-0.142-0.042-0.146-0.096c0-0.017,0.015-0.061,0.051-0.131c0.035-0.07,0.077-0.154,0.13-0.256
			c0.053-0.099,0.112-0.203,0.173-0.317c0.063-0.113,0.123-0.219,0.181-0.319c0.06-0.101,0.108-0.188,0.148-0.26
			c0.042-0.074,0.07-0.117,0.077-0.135l0.415-0.028c0.012-0.298,0.026-0.548,0.033-0.749s0.014-0.369,0.018-0.501
			c0.003-0.134,0.012-0.236,0.018-0.311c0.003-0.071,0.014-0.126,0.024-0.163c0.012-0.035,0.029-0.056,0.047-0.069
			c0.02-0.012,0.049-0.021,0.084-0.033c0.172-0.045,0.34-0.092,0.499-0.13c0.161-0.041,0.325-0.082,0.484-0.127
			c0.161-0.041,0.324-0.089,0.492-0.142c0.164-0.051,0.336-0.113,0.518-0.177c0.009-0.004,0.018-0.004,0.024-0.007
			c0-0.002,0.011-0.004,0.02-0.004c0.047-0.004,0.07,0.011,0.07,0.043l0.005,0.01c-0.007,0.215-0.014,0.516-0.028,0.899
			c-0.014,0.381-0.031,0.817-0.047,1.303l1.562-0.111c0.03,0,0.06,0.007,0.091,0.028c0.028,0.018,0.051,0.053,0.053,0.104
			c0,0.019-0.018,0.09-0.06,0.216c-0.035,0.121-0.091,0.284-0.161,0.485l-0.177,0.486c-0.024,0.062-0.051,0.105-0.078,0.135
			c-0.028,0.027-0.086,0.051-0.177,0.062L120.239,44.64z"/>
		<path fill="#253435" d="M125.51,49.092c-0.548,0.041-1.034-0.015-1.463-0.166c-0.425-0.154-0.787-0.362-1.087-0.64
			c-0.301-0.282-0.533-0.605-0.703-0.983c-0.166-0.377-0.266-0.775-0.294-1.19c-0.028-0.414,0.016-0.815,0.124-1.199
			c0.11-0.387,0.276-0.732,0.497-1.047c0.229-0.314,0.501-0.582,0.835-0.807c0.325-0.225,0.696-0.387,1.101-0.484
			c0.062-0.009,0.093-0.024,0.088-0.047c-0.002-0.042-0.009-0.082-0.02-0.117c-0.016-0.035-0.021-0.068-0.024-0.095
			c0-0.046,0.007-0.074,0.018-0.089c0.018-0.018,0.031-0.027,0.051-0.027c0.743-0.054,1.382-0.012,1.912,0.122
			c0.534,0.132,0.972,0.333,1.316,0.602c0.352,0.269,0.607,0.596,0.784,0.982c0.173,0.388,0.279,0.806,0.312,1.264
			c0.038,0.575-0.021,1.098-0.183,1.566c-0.166,0.466-0.404,0.872-0.719,1.209c-0.313,0.338-0.687,0.604-1.127,0.802
			C126.49,48.943,126.018,49.058,125.51,49.092z M124.201,45.894c0.018,0.21,0.051,0.419,0.11,0.622
			c0.06,0.201,0.148,0.383,0.261,0.543c0.113,0.159,0.259,0.284,0.436,0.377c0.173,0.09,0.385,0.127,0.632,0.109
			c0.177-0.021,0.332-0.07,0.462-0.149c0.133-0.08,0.236-0.183,0.325-0.305c0.088-0.121,0.163-0.26,0.216-0.406
			c0.054-0.148,0.096-0.299,0.12-0.453c0.028-0.158,0.042-0.312,0.046-0.462c0.007-0.147,0.007-0.28-0.004-0.399
			c-0.014-0.204-0.056-0.401-0.131-0.591c-0.073-0.188-0.172-0.351-0.301-0.492c-0.121-0.142-0.28-0.25-0.457-0.328
			c-0.182-0.08-0.382-0.11-0.607-0.097c-0.234,0.017-0.425,0.098-0.572,0.248c-0.152,0.15-0.27,0.328-0.35,0.537
			c-0.079,0.206-0.135,0.423-0.163,0.649C124.199,45.526,124.192,45.725,124.201,45.894z"/>
	</g>
</g>
<circle fill="#090A0C" cx="-53" cy="12.958" r="23.667"/>
<path fill="#FFFFFF" d="M-31.999-23.549c0-3.966,1.286-7.631,3.46-10.606c-2.966,2.576-4.845,6.371-4.845,10.606
	c0,4.236,1.879,8.032,4.845,10.607C-30.713-15.917-31.999-19.583-31.999-23.549z"/>
<circle fill="#253435" cx="34.402" cy="37.168" r="25.042"/>
<path fill="#FFFFFF" d="M44.251,37.169c0,5.442-4.407,9.852-9.851,9.852c-5.439,0-9.85-4.409-9.85-9.852
	c0-5.439,4.41-9.849,9.85-9.849C39.844,27.32,44.251,31.73,44.251,37.169z"/>
<circle fill="#FFFFFF" cx="-53" cy="12.958" r="7.417"/>
<g>
	<path fill="#FFFFFF" d="M-75.045,54.583h-1.456c-1.784,2.964-2.825,6.425-2.825,10.137c0,3.444,0.898,6.671,2.45,9.488h1.458
		c-1.553-2.815-2.449-6.044-2.449-9.488C-77.867,61.008-76.829,57.547-75.045,54.583z"/>
	<path fill="#FFFFFF" d="M-72.574,54.583h-1.456c-1.784,2.964-2.825,6.425-2.825,10.137c0,3.444,0.898,6.671,2.45,9.488h1.458
		c-1.553-2.815-2.449-6.044-2.449-9.488C-75.396,61.008-74.358,57.547-72.574,54.583z"/>
	<path fill="#FFFFFF" d="M-70.104,54.583h-1.456c-1.784,2.964-2.825,6.425-2.825,10.137c0,3.444,0.898,6.671,2.45,9.488h1.458
		c-1.553-2.815-2.449-6.044-2.449-9.488C-72.926,61.008-71.887,57.547-70.104,54.583z"/>
	<path fill="#FFFFFF" d="M-62.691,54.583h-1.456c-1.784,2.964-2.825,6.425-2.825,10.137c0,3.444,0.898,6.671,2.45,9.488h1.458
		c-1.553-2.815-2.449-6.044-2.449-9.488C-65.513,61.008-64.475,57.547-62.691,54.583z"/>
	<path fill="#FFFFFF" d="M-65.162,54.583h-1.456c-1.784,2.964-2.825,6.425-2.825,10.137c0,3.444,0.898,6.671,2.45,9.488h1.458
		c-1.553-2.815-2.449-6.044-2.449-9.488C-67.984,61.008-66.945,57.547-65.162,54.583z"/>
	<path fill="#FFFFFF" d="M-67.632,54.583h-1.456c-1.784,2.964-2.825,6.425-2.825,10.137c0,3.444,0.898,6.671,2.45,9.488h1.458
		c-1.553-2.815-2.449-6.044-2.449-9.488C-70.455,61.008-69.416,57.547-67.632,54.583z"/>
	<path fill="#0B0D0E" d="M-78,55.25c0.083,0.333,13.25,6.583,13.25,6.583l5.583-5.917L-62.917,51l-6.167-0.25l-5.333,0.5L-78,55.25z
		"/>
	<path fill="#0B0D0E" d="M-78,74.499c0.083-0.334,13.25-6.584,13.25-6.584l5.583,5.917l-3.75,4.917l-6.167,0.25l-5.333-0.5
		L-78,74.499z"/>
</g>
<g>
	<g>
		<g>
			<path fill="#253435" d="M38.543,18.406c0.012,0.366,0.012,0.812,0.005,1.351c-0.01,0.538-0.019,1.107-0.03,1.698
				c-0.015,0.602-0.03,1.209-0.055,1.82c-0.026,0.615-0.049,1.182-0.068,1.698c-0.015,0.514-0.024,0.959-0.028,1.329
				c-0.007,0.374-0.005,0.608,0,0.712c0.009,0.939,0.004,1.81-0.014,2.61c-0.011,0.802-0.025,1.599-0.044,2.386
				c-0.022,0.788-0.049,1.598-0.074,2.445c-0.022,0.843-0.045,1.763-0.065,2.782c-0.021,1.017-0.046,2.144-0.072,3.388
				c-0.025,1.236-0.039,2.663-0.057,4.267l9.284-1.593c0.421-0.075,0.765-0.124,1.038-0.142c0.328-0.022,0.539,0.014,0.624,0.115
				c0.096,0.098,0.146,0.254,0.164,0.486c0,0.029,0,0.07-0.018,0.13c-0.011,0.049-0.035,0.15-0.074,0.304
				c-0.049,0.159-0.104,0.384-0.183,0.677c-0.082,0.289-0.186,0.7-0.313,1.221l-0.396,1.521c-0.128,0.495-0.251,0.945-0.371,1.329
				c-0.116,0.397-0.27,0.742-0.46,1.037c-0.19,0.293-0.44,0.528-0.744,0.719c-0.305,0.186-0.703,0.32-1.197,0.397
				c-0.313,0.054-0.739,0.11-1.283,0.167c-0.534,0.067-1.162,0.134-1.866,0.198c-0.705,0.073-1.468,0.156-2.286,0.246
				c-0.819,0.081-1.654,0.179-2.508,0.282c-0.841,0.092-1.692,0.168-2.546,0.232c-0.857,0.073-1.673,0.137-2.438,0.203
				c-0.771,0.069-1.475,0.137-2.12,0.193c-0.644,0.066-1.181,0.114-1.6,0.159c-0.389,0.027-0.673,0.018-0.854-0.034
				c-0.173-0.049-0.272-0.139-0.282-0.274c-0.011-0.168,0.026-0.406,0.109-0.721c0.086-0.316,0.198-0.673,0.339-1.075
				c0.138-0.389,0.294-0.804,0.467-1.229c0.173-0.427,0.349-0.846,0.515-1.248l0.052-8.101c0.022-1.384,0.05-2.784,0.072-4.203
				c0.023-1.427,0.03-2.799,0.03-4.133l-0.034-6.011c-0.005-1.421-0.018-2.451-0.033-3.094c-0.013-0.64-0.022-0.992-0.029-1.051
				c0.013-0.274,0.017-0.5,0.022-0.685c0.004-0.176,0.021-0.333,0.045-0.454c0.032-0.124,0.083-0.218,0.153-0.287
				c0.07-0.062,0.18-0.114,0.33-0.157l7.791-2.423c0.163-0.07,0.368-0.121,0.602-0.136c0.169-0.008,0.288,0.033,0.363,0.124
				c0.074,0.089,0.121,0.278,0.139,0.549c0.003,0.029,0.003,0.068-0.002,0.124C38.539,18.312,38.539,18.361,38.543,18.406z"/>
			<path fill="#253435" d="M28.368,54.428c-0.354,0-0.657-0.037-0.921-0.111c-0.838-0.234-1.402-0.896-1.466-1.724
				c-0.024-0.37,0.023-0.754,0.156-1.261c0.101-0.366,0.223-0.757,0.376-1.196c0.15-0.424,0.314-0.862,0.497-1.311l0.398-0.962
				l0.12-11.999c0.023-1.419,0.03-2.782,0.03-4.107l-0.034-6.002c-0.005-1.408-0.018-2.425-0.033-3.061
				c-0.01-0.556-0.02-0.879-0.024-0.976l-0.004-0.085l0.019-0.622c0.008-0.417,0.042-0.676,0.082-0.877
				c0.118-0.484,0.327-0.855,0.62-1.138c0.313-0.28,0.632-0.446,1.025-0.556l7.679-2.389c0.323-0.126,0.676-0.202,1.046-0.227
				c0.812,0.002,1.347,0.25,1.73,0.71c0.401,0.47,0.488,1.074,0.516,1.486l0.009,0.138l-0.016,0.262
				c0.018,0.322,0.02,0.788,0.013,1.35l-0.03,1.717c-0.015,0.616-0.032,1.231-0.056,1.85l-0.069,1.698
				c-0.013,0.485-0.022,0.923-0.027,1.287c-0.006,0.327-0.006,0.527-0.001,0.616c0.011,1.016,0.006,1.903-0.012,2.719
				c-0.011,0.798-0.025,1.6-0.044,2.394l-0.075,2.455c-0.022,0.833-0.044,1.75-0.064,2.764l-0.072,3.389
				c-0.014,0.701-0.025,1.464-0.035,2.286l7.349-1.261c0.483-0.087,0.888-0.141,1.209-0.161c0.902-0.062,1.547,0.173,1.986,0.7
				c0.281,0.277,0.492,0.786,0.54,1.411l0.022,0.298l-0.349,1.36c-0.083,0.298-0.182,0.691-0.305,1.188l-0.4,1.541
				c-0.134,0.522-0.266,0.998-0.392,1.406c-0.153,0.519-0.374,1.012-0.649,1.438c-0.314,0.487-0.735,0.896-1.249,1.218
				c-0.513,0.312-1.116,0.519-1.813,0.628c-0.321,0.055-0.78,0.117-1.369,0.178c-0.513,0.064-1.159,0.133-1.884,0.199l-2.258,0.244
				c-0.825,0.082-1.647,0.178-2.488,0.28c-0.88,0.096-1.748,0.173-2.619,0.239l-6.109,0.551
				C28.681,54.421,28.517,54.428,28.368,54.428z M30.74,21.601c0.008,0.186,0.018,0.527,0.027,1.022
				c0.016,0.638,0.028,1.679,0.033,3.119l0.034,6.006c0,1.352-0.007,2.734-0.031,4.169l-0.071,4.202l-0.055,8.405l-0.633,1.536
				c-0.138,0.333-0.263,0.662-0.375,0.976l5.099-0.449c0.851-0.063,1.683-0.138,2.506-0.229c0.846-0.104,1.693-0.202,2.525-0.284
				l2.277-0.245c0.702-0.064,1.312-0.129,1.831-0.194c0.535-0.056,0.928-0.108,1.215-0.156c0.389-0.062,0.563-0.148,0.619-0.183
				c0.125-0.078,0.188-0.158,0.221-0.211c0.103-0.159,0.192-0.364,0.264-0.606c0.12-0.388,0.235-0.811,0.355-1.277l0.396-1.524
				c0.062-0.252,0.12-0.482,0.171-0.687l-10.766,1.847l0.022-2.16c0.016-1.531,0.03-2.896,0.055-4.086l0.071-3.387
				c0.021-1.024,0.043-1.949,0.065-2.794l0.074-2.445c0.019-0.779,0.033-1.57,0.045-2.366c0.018-0.794,0.022-1.647,0.013-2.568
				c-0.004-0.061-0.008-0.331,0-0.76c0.005-0.365,0.014-0.819,0.028-1.341l0.07-1.726c0.022-0.597,0.039-1.195,0.055-1.789
				l0.028-1.688c0.002-0.086,0.004-0.17,0.004-0.253l-6.169,1.918L30.74,21.601z"/>
		</g>
	</g>
	<g>
		<path fill="#FFFFFF" d="M38.543,18.406c0.012,0.366,0.012,0.812,0.005,1.351c-0.01,0.538-0.019,1.107-0.03,1.698
			c-0.015,0.602-0.03,1.209-0.055,1.82c-0.026,0.615-0.049,1.182-0.068,1.698c-0.015,0.514-0.024,0.959-0.028,1.329
			c-0.007,0.374-0.005,0.608,0,0.712c0.009,0.939,0.004,1.81-0.014,2.61c-0.011,0.802-0.025,1.599-0.044,2.386
			c-0.022,0.788-0.049,1.598-0.074,2.445c-0.022,0.843-0.045,1.763-0.065,2.782c-0.021,1.017-0.046,2.143-0.072,3.387
			c-0.025,1.238-0.039,2.664-0.057,4.267l9.284-1.593c0.421-0.073,0.765-0.123,1.038-0.141c0.328-0.022,0.539,0.013,0.624,0.115
			c0.096,0.098,0.146,0.254,0.164,0.486c0,0.028,0,0.07-0.018,0.131c-0.011,0.048-0.035,0.15-0.074,0.303
			c-0.049,0.158-0.104,0.385-0.183,0.676c-0.082,0.29-0.186,0.701-0.313,1.222l-0.396,1.521c-0.128,0.495-0.251,0.945-0.371,1.329
			c-0.116,0.397-0.27,0.741-0.46,1.036c-0.19,0.294-0.44,0.529-0.744,0.72c-0.305,0.186-0.703,0.319-1.197,0.397
			c-0.313,0.054-0.739,0.11-1.283,0.167c-0.534,0.067-1.162,0.133-1.866,0.198c-0.705,0.073-1.468,0.155-2.286,0.246
			c-0.819,0.082-1.654,0.178-2.508,0.283c-0.841,0.091-1.692,0.166-2.546,0.231c-0.857,0.072-1.673,0.137-2.438,0.203
			c-0.771,0.069-1.475,0.137-2.12,0.192c-0.644,0.067-1.181,0.115-1.6,0.16c-0.389,0.028-0.673,0.018-0.854-0.034
			c-0.173-0.05-0.272-0.139-0.282-0.273c-0.011-0.169,0.026-0.406,0.109-0.723c0.086-0.315,0.198-0.672,0.339-1.074
			c0.138-0.388,0.294-0.804,0.467-1.229c0.173-0.427,0.349-0.845,0.515-1.247l0.052-8.102c0.022-1.384,0.05-2.784,0.072-4.203
			c0.023-1.427,0.03-2.799,0.03-4.133l-0.034-6.011c-0.005-1.421-0.018-2.451-0.033-3.094c-0.013-0.64-0.022-0.992-0.029-1.051
			c0.013-0.274,0.017-0.5,0.022-0.685c0.004-0.176,0.021-0.333,0.045-0.454c0.032-0.124,0.083-0.218,0.153-0.287
			c0.07-0.062,0.18-0.114,0.33-0.157l7.791-2.423c0.163-0.07,0.368-0.121,0.602-0.136c0.169-0.008,0.288,0.033,0.363,0.124
			c0.074,0.089,0.121,0.278,0.139,0.549c0.003,0.029,0.003,0.068-0.002,0.124C38.539,18.312,38.539,18.361,38.543,18.406z"/>
	</g>
</g>
</svg>
