<?xml version="1.0" encoding="utf-8"?>
<!-- Generator: Adobe Illustrator 15.0.0, SVG Export Plug-In . SVG Version: 6.00 Build 0)  -->
<!DOCTYPE svg PUBLIC "-//W3C//DTD SVG 1.1//EN" "http://www.w3.org/Graphics/SVG/1.1/DTD/svg11.dtd">
<svg version="1.1" id="Layer_1" xmlns="http://www.w3.org/2000/svg" xmlns:xlink="http://www.w3.org/1999/xlink" x="0px" y="0px"
	 width="150px" height="75px" viewBox="0 0 150 75" enable-background="new 0 0 150 75" xml:space="preserve">
<g>
	<path fill="#FFFFFF" d="M25.241,28.892c0.007,0.214,0.007,0.479,0.002,0.796c-0.004,0.317-0.01,0.652-0.017,1.004
		c-0.008,0.353-0.018,0.711-0.034,1.073c-0.014,0.362-0.028,0.696-0.038,1c-0.01,0.304-0.016,0.565-0.019,0.785
		c-0.002,0.219-0.001,0.359,0.002,0.421c0.003,0.553,0.001,1.065-0.007,1.538c-0.007,0.474-0.017,0.942-0.029,1.407
		s-0.026,0.946-0.041,1.442c-0.015,0.496-0.028,1.043-0.039,1.642c-0.012,0.598-0.027,1.264-0.042,1.996
		c-0.017,0.732-0.026,1.572-0.033,2.518l5.475-0.941c0.246-0.043,0.449-0.072,0.609-0.082c0.195-0.014,0.319,0.008,0.373,0.066
		c0.053,0.061,0.084,0.154,0.093,0.289c0.001,0.018-0.001,0.041-0.008,0.074c-0.007,0.031-0.023,0.092-0.047,0.184
		c-0.026,0.092-0.06,0.223-0.107,0.396c-0.046,0.172-0.107,0.412-0.184,0.721l-0.232,0.898c-0.078,0.291-0.151,0.555-0.219,0.785
		c-0.069,0.232-0.16,0.436-0.272,0.609c-0.113,0.172-0.259,0.312-0.439,0.424c-0.179,0.109-0.415,0.189-0.705,0.236
		c-0.186,0.031-0.437,0.064-0.756,0.1c-0.318,0.035-0.687,0.074-1.103,0.115c-0.416,0.043-0.865,0.09-1.348,0.143
		c-0.483,0.051-0.977,0.107-1.48,0.168c-0.496,0.053-0.997,0.1-1.501,0.139c-0.506,0.039-0.986,0.08-1.438,0.119
		c-0.453,0.041-0.869,0.078-1.25,0.113c-0.38,0.037-0.695,0.066-0.943,0.094c-0.23,0.016-0.398,0.01-0.503-0.02
		c-0.104-0.027-0.16-0.082-0.166-0.162c-0.007-0.098,0.015-0.24,0.064-0.426c0.049-0.186,0.116-0.396,0.197-0.631
		c0.083-0.232,0.175-0.475,0.277-0.727c0.104-0.252,0.205-0.498,0.304-0.738l0.03-4.777c0.015-0.814,0.029-1.639,0.042-2.479
		c0.013-0.84,0.019-1.652,0.018-2.437l-0.019-3.545c-0.004-0.837-0.011-1.446-0.019-1.825c-0.009-0.378-0.014-0.585-0.017-0.621
		c0.007-0.162,0.01-0.295,0.012-0.403c0.001-0.107,0.011-0.197,0.028-0.269c0.018-0.072,0.047-0.128,0.089-0.167
		c0.042-0.038,0.106-0.07,0.193-0.093l4.597-1.43c0.096-0.042,0.215-0.069,0.356-0.079c0.098-0.007,0.169,0.018,0.212,0.072
		c0.044,0.055,0.071,0.162,0.083,0.322c0.002,0.018,0.001,0.042-0.001,0.074C25.24,28.836,25.24,28.866,25.241,28.892z"/>
	<path fill="#FFFFFF" d="M32.26,41.906c0.031-1.225,0.062-2.436,0.096-3.633c0.032-1.198,0.05-2.426,0.052-3.684
		c-0.003-0.294,0.012-0.498,0.044-0.612c0.032-0.114,0.127-0.194,0.284-0.24c0.744-0.204,1.524-0.416,2.338-0.638
		c0.814-0.221,1.599-0.487,2.353-0.798c0.025-0.011,0.065-0.018,0.119-0.021c0.098-0.008,0.149,0.024,0.154,0.096L37.401,45.43
		c-0.005,0.295-0.023,0.498-0.051,0.611s-0.12,0.193-0.277,0.24c-0.739,0.283-1.485,0.594-2.237,0.932
		c-0.753,0.338-1.549,0.682-2.391,1.037c-0.025,0.01-0.065,0.018-0.119,0.02c-0.098,0.008-0.149-0.033-0.156-0.123
		c0-0.008,0-0.129,0.002-0.359c0.001-0.232,0.006-0.533,0.011-0.898s0.011-0.775,0.015-1.232c0.004-0.455,0.011-0.91,0.019-1.365
		c0.009-0.455,0.017-0.895,0.022-1.312C32.247,42.559,32.253,42.201,32.26,41.906z M32.521,31.21c0.001-0.384,0-0.678,0-0.883
		c-0.001-0.205-0.001-0.358,0.001-0.461c0.001-0.103,0.001-0.167,0-0.194c-0.002-0.026-0.001-0.046,0.002-0.061
		c0.003-0.013,0.005-0.04,0.008-0.08c0.001-0.04,0.002-0.126,0.002-0.255s0-0.319,0.001-0.568c0-0.25,0.003-0.594,0.009-1.031
		c-0.003-0.293,0.012-0.498,0.044-0.612c0.032-0.113,0.127-0.193,0.284-0.24c0.744-0.204,1.524-0.416,2.338-0.637
		c0.813-0.221,1.599-0.488,2.353-0.799c0.026-0.011,0.066-0.018,0.119-0.022c0.03,0.051,0.068,0.084,0.114,0.099l0.042,0.024
		l-0.04,3.668c-0.007,0.294-0.025,0.501-0.057,0.62c-0.032,0.118-0.124,0.196-0.272,0.232c-0.744,0.194-1.497,0.404-2.257,0.625
		c-0.761,0.223-1.566,0.448-2.416,0.676c-0.026,0.011-0.066,0.018-0.119,0.022C32.58,31.34,32.527,31.299,32.521,31.21z"/>
	<path fill="#FFFFFF" d="M38.63,43.443c0-0.008-0.003-0.016-0.008-0.018c-0.004-0.006-0.007-0.012-0.007-0.021
		c-0.008-0.115,0.05-0.176,0.174-0.186c0.079-0.006,0.152,0.02,0.219,0.078c0.378,0.312,0.804,0.561,1.276,0.74
		c0.472,0.182,0.974,0.254,1.507,0.217c0.141-0.01,0.305-0.035,0.489-0.08c0.184-0.043,0.358-0.107,0.521-0.189
		c0.164-0.084,0.297-0.188,0.399-0.316c0.103-0.127,0.148-0.279,0.136-0.457c-0.013-0.195-0.074-0.373-0.184-0.529
		c-0.109-0.158-0.248-0.283-0.415-0.379c-0.094-0.057-0.256-0.154-0.488-0.293c-0.233-0.141-0.482-0.291-0.748-0.451
		c-0.265-0.16-0.516-0.312-0.754-0.457c-0.237-0.143-0.403-0.248-0.496-0.312c-0.42-0.273-0.76-0.559-1.017-0.852
		c-0.257-0.295-0.458-0.605-0.606-0.929c-0.146-0.325-0.251-0.667-0.312-1.029c-0.06-0.361-0.104-0.746-0.133-1.155
		c-0.043-0.622,0.081-1.219,0.372-1.792c0.289-0.574,0.688-1.087,1.197-1.542c0.508-0.455,1.096-0.828,1.762-1.119
		c0.667-0.292,1.355-0.462,2.066-0.512c0.586-0.041,1.169,0.008,1.75,0.146c0.581,0.139,1.129,0.404,1.647,0.796
		c0.083,0.556,0.152,1.104,0.208,1.644c0.055,0.541,0.121,1.107,0.198,1.699c0.007,0.115-0.014,0.195-0.063,0.239
		c-0.051,0.043-0.111,0.068-0.183,0.072c-0.062,0.005-0.117-0.013-0.165-0.054c-0.218-0.182-0.439-0.36-0.667-0.536
		c-0.226-0.176-0.461-0.33-0.707-0.459c-0.246-0.13-0.505-0.232-0.778-0.307c-0.272-0.076-0.56-0.102-0.862-0.081
		c-0.186,0.013-0.372,0.041-0.556,0.085c-0.184,0.044-0.348,0.114-0.494,0.208c-0.145,0.095-0.259,0.217-0.342,0.365
		c-0.083,0.149-0.117,0.334-0.102,0.557c0.018,0.257,0.064,0.477,0.139,0.659c0.076,0.182,0.235,0.354,0.477,0.515l2.593,1.506
		c0.475,0.279,0.862,0.558,1.163,0.836c0.3,0.277,0.541,0.559,0.721,0.84c0.18,0.283,0.309,0.564,0.387,0.85
		c0.077,0.285,0.125,0.568,0.146,0.854c0.056,0.799-0.08,1.514-0.406,2.148c-0.326,0.633-0.769,1.172-1.326,1.617
		c-0.558,0.443-1.2,0.797-1.927,1.057c-0.727,0.26-1.463,0.416-2.208,0.467c-0.569,0.041-1.122,0.02-1.658-0.064
		c-0.536-0.082-1.04-0.232-1.509-0.451L38.63,43.443z"/>
	<path fill="#FFFFFF" d="M55.511,35.648c-0.059,0.941-0.112,1.879-0.159,2.814c-0.047,0.936-0.055,1.809-0.026,2.619
		c0.024,0.346,0.071,0.633,0.14,0.859c0.069,0.227,0.16,0.404,0.271,0.529s0.239,0.213,0.386,0.262
		c0.146,0.047,0.307,0.064,0.485,0.053c0.284-0.02,0.592-0.084,0.923-0.191s0.662-0.24,0.99-0.396
		c0.104-0.053,0.191-0.092,0.266-0.119c0.073-0.027,0.137-0.043,0.19-0.047c0.089-0.006,0.151,0.029,0.188,0.107
		s0.078,0.215,0.123,0.412c0.045,0.199,0.11,0.463,0.196,0.797c0.085,0.334,0.218,0.752,0.395,1.258
		c0.012,0.043,0.022,0.08,0.028,0.111c0.007,0.031,0.011,0.061,0.014,0.086c0.009,0.123-0.032,0.217-0.122,0.275
		c-0.09,0.061-0.238,0.133-0.447,0.219c-0.355,0.148-0.73,0.303-1.125,0.459c-0.396,0.158-0.786,0.303-1.174,0.438
		c-0.387,0.133-0.761,0.246-1.12,0.338s-0.676,0.146-0.952,0.166c-1.483,0.104-2.588-0.189-3.319-0.879
		c-0.729-0.691-1.148-1.789-1.252-3.299c-0.018-0.258-0.027-0.523-0.028-0.795s0.001-0.555,0.008-0.85
		c0.027-0.895,0.045-1.74,0.058-2.54c0.011-0.799,0.027-1.565,0.048-2.297l-1.398,0.097c-0.479,0.033-0.828,0.037-1.043,0.012
		c-0.216-0.026-0.328-0.1-0.336-0.225c-0.003-0.036,0.035-0.134,0.112-0.295c0.079-0.163,0.179-0.356,0.301-0.583
		c0.123-0.228,0.255-0.47,0.397-0.73c0.142-0.259,0.28-0.503,0.412-0.731c0.131-0.228,0.245-0.425,0.339-0.592
		c0.096-0.168,0.156-0.271,0.18-0.307l0.946-0.065c0.032-0.681,0.058-1.251,0.074-1.712c0.018-0.46,0.031-0.842,0.042-1.147
		c0.01-0.304,0.023-0.538,0.038-0.705c0.016-0.166,0.036-0.289,0.061-0.372c0.026-0.083,0.062-0.136,0.109-0.161
		c0.048-0.026,0.11-0.05,0.189-0.074c0.394-0.108,0.775-0.208,1.144-0.3s0.736-0.187,1.104-0.284
		c0.367-0.097,0.742-0.206,1.121-0.326s0.774-0.257,1.183-0.409c0.027-0.002,0.044-0.006,0.052-0.011
		c0.009-0.004,0.027-0.008,0.053-0.01c0.107-0.008,0.163,0.024,0.167,0.096l0.002,0.027c-0.011,0.49-0.033,1.174-0.066,2.051
		c-0.032,0.876-0.068,1.87-0.107,2.978l3.568-0.247c0.071-0.005,0.142,0.015,0.211,0.059c0.07,0.043,0.109,0.124,0.117,0.239
		c0.003,0.044-0.039,0.208-0.126,0.49c-0.087,0.283-0.212,0.652-0.377,1.11l-0.405,1.111c-0.053,0.138-0.11,0.24-0.172,0.307
		c-0.062,0.067-0.194,0.116-0.398,0.148L55.511,35.648z"/>
	<path fill="#FFFFFF" d="M66.562,30.266c0.843-0.059,1.62,0.045,2.33,0.312c0.71,0.268,1.328,0.635,1.855,1.102
		c0.528,0.467,0.947,1.002,1.256,1.606c0.309,0.603,0.486,1.215,0.528,1.836c0.039,0.549-0.091,1.115-0.391,1.693
		c-0.299,0.578-0.736,1.11-1.313,1.596c-0.577,0.486-1.282,0.896-2.116,1.23c-0.833,0.336-1.761,0.537-2.782,0.609
		c-0.532,0.037-1.096,0.021-1.688-0.043c0.062,0.379,0.196,0.699,0.401,0.961c0.206,0.264,0.456,0.473,0.753,0.629
		c0.296,0.158,0.627,0.268,0.992,0.326c0.366,0.061,0.739,0.076,1.122,0.051c0.426-0.029,0.833-0.098,1.223-0.199
		c0.39-0.104,0.762-0.229,1.118-0.379c0.355-0.148,0.696-0.312,1.023-0.484c0.327-0.176,0.635-0.35,0.926-0.52
		c0.079-0.023,0.147-0.045,0.204-0.062c0.057-0.016,0.112-0.027,0.165-0.031c0.011,0.285,0.026,0.555,0.043,0.814
		c0.018,0.256,0.038,0.568,0.058,0.932c0.021,0.365,0.042,0.768,0.064,1.213c0.03,0.043,0.05,0.086,0.062,0.129
		c0.013,0.045,0.019,0.08,0.021,0.105c0.006,0.107-0.083,0.23-0.27,0.367c-0.187,0.139-0.433,0.285-0.738,0.439
		c-0.306,0.154-0.656,0.309-1.052,0.461c-0.395,0.152-0.798,0.293-1.208,0.426c-0.411,0.131-0.809,0.238-1.195,0.322
		c-0.387,0.086-0.726,0.139-1.02,0.158c-0.959,0.066-1.9-0.035-2.824-0.305c-0.924-0.271-1.756-0.693-2.496-1.266
		s-1.349-1.289-1.829-2.148c-0.479-0.857-0.756-1.842-0.833-2.951c-0.082-1.164,0.043-2.267,0.372-3.312
		c0.329-1.043,0.83-1.967,1.5-2.773c0.67-0.804,1.493-1.459,2.466-1.964C64.265,30.644,65.354,30.35,66.562,30.266z M66.648,33.819
		c-0.365,0.025-0.694,0.127-0.99,0.302c-0.295,0.177-0.56,0.418-0.792,0.724c-0.233,0.306-0.429,0.667-0.587,1.085
		c-0.159,0.417-0.278,0.873-0.36,1.369c0.903-0.223,1.651-0.444,2.243-0.664c0.59-0.219,1.062-0.433,1.414-0.64
		s0.596-0.407,0.734-0.6c0.139-0.192,0.202-0.373,0.19-0.542c-0.011-0.16-0.081-0.307-0.211-0.44
		c-0.129-0.134-0.287-0.247-0.472-0.342c-0.185-0.094-0.384-0.164-0.596-0.206C67.007,33.823,66.816,33.808,66.648,33.819z"/>
	<path fill="#FFFFFF" d="M84.313,44.447c-0.096,0.033-0.222,0.084-0.377,0.154c-0.156,0.068-0.31,0.107-0.46,0.117
		c-0.124,0.01-0.235-0.014-0.334-0.07c-0.097-0.055-0.15-0.158-0.161-0.309l-0.005-0.08c0.02-0.482,0.035-0.893,0.048-1.229
		c0.013-0.334,0.025-0.641,0.037-0.912c0.013-0.273,0.021-0.545,0.023-0.818c0.004-0.271,0.01-0.588,0.021-0.951
		c0.01-0.361,0.022-0.791,0.038-1.287c0.014-0.496,0.03-1.115,0.051-1.856c0.014-0.456,0.021-0.92,0.023-1.393
		c0.003-0.474-0.009-0.91-0.037-1.309c-0.019-0.266-0.056-0.511-0.111-0.734c-0.056-0.224-0.14-0.415-0.253-0.572
		c-0.113-0.157-0.263-0.274-0.446-0.351s-0.413-0.104-0.688-0.085c-0.204,0.013-0.482,0.078-0.837,0.191
		c-0.353,0.114-0.699,0.285-1.041,0.514c-0.34,0.229-0.637,0.52-0.89,0.871c-0.251,0.353-0.378,0.774-0.381,1.265
		c-0.008,0.661-0.017,1.226-0.028,1.694c-0.013,0.47-0.024,0.867-0.038,1.193c-0.014,0.327-0.023,0.594-0.031,0.799
		c-0.009,0.206-0.012,0.379-0.011,0.523c-0.007,0.035-0.014,0.135-0.021,0.295s-0.013,0.354-0.02,0.576
		c-0.007,0.225-0.013,0.461-0.018,0.711s-0.011,0.486-0.018,0.711c-0.006,0.223-0.011,0.416-0.013,0.576s-0.002,0.258,0,0.293
		c0.004,0.072,0.011,0.133,0.019,0.18c0.008,0.049,0.014,0.096,0.017,0.141c0.005,0.07-0.024,0.133-0.088,0.186
		c-0.062,0.053-0.207,0.121-0.434,0.197l-3.445,1.457c-0.096,0.043-0.221,0.096-0.377,0.16s-0.31,0.102-0.46,0.111
		c-0.125,0.01-0.235-0.014-0.333-0.068c-0.098-0.057-0.151-0.16-0.162-0.311l0.267-13.693c0.006-0.295,0.025-0.5,0.058-0.613
		c0.032-0.113,0.127-0.193,0.285-0.24c0.796-0.216,1.615-0.436,2.456-0.66c0.841-0.222,1.656-0.491,2.446-0.805
		c0.071-0.004,0.114,0.003,0.129,0.024c0.015,0.022,0.024,0.055,0.026,0.099c0.001,0.018,0.001,0.044-0.001,0.08
		c-0.001,0.036-0.009,0.117-0.023,0.243c-0.013,0.125-0.031,0.317-0.053,0.573c-0.022,0.256-0.054,0.612-0.094,1.07
		c0.588-0.398,1.144-0.724,1.665-0.979c0.521-0.255,1.017-0.458,1.482-0.611c0.468-0.153,0.908-0.265,1.322-0.333
		c0.414-0.069,0.804-0.117,1.167-0.141c1.252-0.088,2.188,0.229,2.81,0.949c0.62,0.72,0.982,1.837,1.09,3.356
		c0.013,0.213,0.024,0.433,0.031,0.661c0.009,0.227,0.004,0.46-0.005,0.702l-0.214,5.768c-0.02,0.377-0.021,0.723-0.009,1.039
		c0.014,0.314,0.034,0.682,0.062,1.098c0.005,0.072,0.012,0.133,0.018,0.182c0.009,0.047,0.014,0.09,0.019,0.125
		c0.004,0.08-0.024,0.145-0.09,0.193c-0.062,0.049-0.206,0.117-0.431,0.203L84.313,44.447z"/>
	<path fill="#FFFFFF" d="M89.149,37.957c0.031-1.224,0.062-2.435,0.096-3.633c0.031-1.197,0.052-2.425,0.054-3.683
		c-0.005-0.293,0.009-0.498,0.042-0.612c0.033-0.113,0.129-0.193,0.287-0.24c0.743-0.203,1.521-0.416,2.336-0.637
		s1.6-0.488,2.354-0.799c0.027-0.011,0.064-0.019,0.118-0.022c0.098-0.007,0.149,0.025,0.155,0.097L94.293,41.48
		c-0.007,0.295-0.024,0.498-0.051,0.611c-0.029,0.113-0.123,0.193-0.278,0.24c-0.738,0.283-1.483,0.594-2.238,0.932
		c-0.752,0.338-1.548,0.684-2.392,1.035c-0.024,0.012-0.064,0.018-0.117,0.023c-0.099,0.006-0.149-0.035-0.156-0.125
		c0-0.008,0-0.129,0.002-0.361c0-0.23,0.005-0.529,0.012-0.896s0.011-0.777,0.016-1.232c0.004-0.455,0.009-0.91,0.018-1.365
		c0.009-0.457,0.018-0.894,0.022-1.312C89.137,38.608,89.143,38.252,89.149,37.957z M89.41,27.262c0.002-0.384,0-0.679-0.003-0.883
		c0-0.205,0.003-0.359,0.005-0.462c0.002-0.103,0.002-0.168,0-0.194c-0.002-0.027-0.002-0.047,0-0.06
		c0.002-0.014,0.007-0.04,0.007-0.08c0.002-0.042,0.004-0.126,0.004-0.255c0-0.13,0-0.319,0.003-0.569
		c0-0.25,0.002-0.593,0.007-1.03c0-0.294,0.011-0.498,0.044-0.612c0.031-0.114,0.129-0.194,0.287-0.241
		c0.743-0.203,1.521-0.415,2.336-0.637c0.814-0.222,1.6-0.487,2.354-0.799c0.026-0.01,0.064-0.018,0.118-0.021
		c0.031,0.051,0.069,0.084,0.115,0.099l0.04,0.023l-0.037,3.67c-0.007,0.294-0.029,0.501-0.061,0.619
		c-0.033,0.118-0.12,0.196-0.27,0.233c-0.745,0.194-1.497,0.402-2.258,0.625c-0.761,0.222-1.566,0.447-2.416,0.676
		c-0.026,0.01-0.066,0.018-0.12,0.021C89.47,27.391,89.419,27.351,89.41,27.262z"/>
	<path fill="#FFFFFF" d="M106.794,42.887c-0.096,0.033-0.223,0.084-0.379,0.154c-0.155,0.068-0.309,0.107-0.46,0.117
		c-0.123,0.01-0.233-0.014-0.332-0.068c-0.098-0.057-0.151-0.16-0.162-0.311l-0.005-0.08c0.021-0.484,0.036-0.893,0.047-1.229
		c0.014-0.336,0.027-0.639,0.038-0.912c0.014-0.273,0.021-0.545,0.024-0.818c0.002-0.271,0.009-0.589,0.021-0.95
		c0.011-0.362,0.021-0.792,0.037-1.288c0.016-0.497,0.031-1.115,0.052-1.857c0.013-0.456,0.022-0.92,0.024-1.393
		s-0.009-0.91-0.038-1.309c-0.018-0.266-0.056-0.511-0.111-0.734c-0.056-0.223-0.14-0.415-0.254-0.571
		c-0.113-0.157-0.262-0.274-0.444-0.351c-0.185-0.077-0.414-0.104-0.689-0.085c-0.205,0.014-0.483,0.078-0.837,0.191
		c-0.354,0.115-0.701,0.286-1.041,0.514c-0.341,0.229-0.637,0.52-0.89,0.872c-0.252,0.352-0.379,0.773-0.381,1.264
		c-0.007,0.661-0.018,1.226-0.028,1.694c-0.012,0.47-0.024,0.868-0.038,1.194c-0.014,0.327-0.022,0.593-0.031,0.798
		c-0.009,0.206-0.011,0.381-0.011,0.523c-0.007,0.035-0.014,0.135-0.021,0.295s-0.014,0.354-0.02,0.576
		c-0.007,0.225-0.012,0.461-0.019,0.711c-0.004,0.25-0.009,0.488-0.016,0.711c-0.009,0.223-0.013,0.416-0.016,0.576
		c-0.002,0.16-0.002,0.258,0.003,0.293c0.004,0.072,0.011,0.133,0.018,0.18c0.009,0.049,0.014,0.096,0.018,0.141
		c0.005,0.07-0.024,0.133-0.089,0.186c-0.062,0.055-0.207,0.121-0.434,0.197l-3.444,1.457c-0.096,0.043-0.222,0.096-0.378,0.16
		c-0.155,0.064-0.31,0.102-0.46,0.111c-0.125,0.01-0.236-0.014-0.332-0.068c-0.098-0.057-0.153-0.16-0.162-0.311l0.267-13.694
		c0.007-0.294,0.024-0.499,0.058-0.613c0.031-0.113,0.127-0.193,0.285-0.24c0.797-0.216,1.615-0.436,2.456-0.658
		c0.841-0.224,1.655-0.493,2.445-0.806c0.07-0.005,0.115,0.002,0.129,0.024c0.016,0.021,0.024,0.054,0.026,0.098
		c0.002,0.018,0.002,0.044,0,0.08c-0.002,0.037-0.011,0.117-0.024,0.243c-0.014,0.125-0.031,0.317-0.054,0.573
		c-0.021,0.256-0.053,0.613-0.093,1.07c0.589-0.397,1.144-0.724,1.666-0.979c0.521-0.255,1.015-0.458,1.481-0.611
		c0.467-0.154,0.908-0.264,1.321-0.333c0.416-0.069,0.806-0.117,1.168-0.142c1.253-0.086,2.189,0.229,2.81,0.949
		c0.621,0.719,0.983,1.838,1.088,3.356c0.016,0.213,0.027,0.434,0.034,0.661c0.006,0.227,0.004,0.46-0.005,0.702l-0.216,5.768
		c-0.018,0.377-0.02,0.723-0.009,1.039c0.014,0.314,0.035,0.682,0.064,1.098c0.005,0.072,0.011,0.133,0.018,0.182
		c0.009,0.047,0.014,0.09,0.016,0.125c0.007,0.08-0.022,0.145-0.087,0.193c-0.062,0.049-0.207,0.117-0.434,0.203L106.794,42.887z"/>
	<path fill="#FFFFFF" d="M114.104,31.555c-0.102-0.047-0.182-0.079-0.24-0.098c-0.06-0.018-0.143-0.05-0.249-0.095
		c-0.104-0.047-0.26-0.114-0.467-0.203c-0.207-0.088-0.51-0.225-0.905-0.412c-0.296-0.131-0.445-0.246-0.452-0.344
		c-0.002-0.027,0.009-0.062,0.031-0.109c0.231-0.417,0.47-0.855,0.719-1.315c0.249-0.458,0.487-0.923,0.714-1.394l-1.135,0.065
		l-0.237,0.017c-0.125,0.008-0.228,0.009-0.31,0.001c-0.08-0.008-0.122-0.043-0.127-0.104l-0.002-0.027
		c0.009-0.385,0.018-0.687,0.024-0.905c0.007-0.219,0.011-0.389,0.011-0.51c0-0.12,0.002-0.207,0.002-0.26s0.003-0.104,0.003-0.148
		c0.002-0.044,0.002-0.098,0.002-0.16s0-0.17-0.002-0.321c0-0.151,0-0.359,0.004-0.622c0.005-0.264,0.009-0.614,0.014-1.052
		c-0.002-0.293,0.014-0.5,0.045-0.618c0.03-0.118,0.126-0.191,0.286-0.22c0.398-0.028,0.816-0.059,1.251-0.094
		c0.434-0.034,0.867-0.069,1.297-0.104c0.432-0.034,0.856-0.065,1.279-0.096c0.42-0.029,0.827-0.057,1.217-0.084
		c0.151-0.01,0.233,0.091,0.249,0.304l-0.014,3.266c-0.013,0.207-0.026,0.377-0.037,0.512c-0.014,0.134-0.027,0.258-0.043,0.37
		c-0.013,0.112-0.033,0.224-0.058,0.332c-0.022,0.109-0.051,0.236-0.087,0.381c-0.044,0.128-0.122,0.296-0.233,0.504
		c-0.109,0.209-0.235,0.434-0.381,0.675c-0.145,0.243-0.293,0.487-0.451,0.734c-0.155,0.247-0.303,0.48-0.438,0.7
		c-0.138,0.219-0.258,0.408-0.362,0.567c-0.104,0.159-0.174,0.266-0.205,0.322c-0.024,0.038-0.056,0.086-0.091,0.146
		c-0.036,0.06-0.078,0.122-0.127,0.183c-0.049,0.062-0.104,0.117-0.162,0.166c-0.061,0.049-0.12,0.076-0.183,0.079
		C114.208,31.587,114.159,31.578,114.104,31.555z"/>
</g>
<g>
	<path fill="#FFFFFF" d="M116.133,44.553c-0.038,0.564-0.069,1.127-0.098,1.689c-0.027,0.561-0.031,1.082-0.014,1.568
		c0.016,0.207,0.042,0.379,0.082,0.514c0.043,0.137,0.099,0.242,0.165,0.318s0.143,0.129,0.229,0.158
		c0.086,0.027,0.187,0.037,0.293,0.031c0.169-0.012,0.354-0.049,0.554-0.115c0.196-0.064,0.396-0.145,0.59-0.238
		c0.064-0.031,0.116-0.053,0.16-0.068c0.045-0.018,0.082-0.029,0.113-0.031c0.054-0.004,0.094,0.018,0.114,0.064
		c0.024,0.047,0.046,0.131,0.073,0.25c0.026,0.119,0.068,0.277,0.117,0.477c0.052,0.197,0.13,0.449,0.238,0.752
		c0.007,0.027,0.012,0.051,0.016,0.068c0.005,0.018,0.007,0.035,0.009,0.051c0.005,0.074-0.02,0.129-0.073,0.166
		c-0.054,0.035-0.143,0.078-0.27,0.131c-0.211,0.09-0.436,0.18-0.674,0.275c-0.235,0.094-0.472,0.18-0.7,0.26
		c-0.236,0.082-0.459,0.15-0.675,0.205c-0.213,0.055-0.404,0.086-0.569,0.1c-0.89,0.061-1.555-0.117-1.991-0.527
		c-0.436-0.416-0.688-1.074-0.749-1.977c-0.012-0.156-0.019-0.314-0.016-0.477c-0.003-0.164,0-0.336,0.004-0.512
		c0.016-0.537,0.027-1.041,0.033-1.521c0.007-0.479,0.019-0.938,0.029-1.377l-0.839,0.059c-0.287,0.02-0.494,0.021-0.625,0.006
		c-0.129-0.016-0.195-0.061-0.2-0.133c-0.002-0.021,0.02-0.082,0.066-0.178c0.049-0.098,0.107-0.213,0.181-0.35
		s0.151-0.283,0.238-0.438c0.086-0.156,0.166-0.301,0.246-0.438s0.147-0.256,0.203-0.355c0.058-0.1,0.093-0.162,0.108-0.184
		l0.567-0.039c0.019-0.408,0.033-0.75,0.045-1.025c0.011-0.277,0.018-0.506,0.024-0.688c0.004-0.184,0.014-0.324,0.024-0.424
		c0.007-0.1,0.018-0.174,0.035-0.223c0.014-0.049,0.036-0.08,0.064-0.096c0.027-0.016,0.067-0.031,0.116-0.045
		c0.233-0.064,0.463-0.125,0.683-0.18c0.221-0.055,0.443-0.111,0.661-0.172c0.223-0.057,0.447-0.121,0.674-0.193
		c0.228-0.072,0.461-0.154,0.71-0.246c0.014-0.001,0.024-0.004,0.031-0.007c0.004-0.002,0.016-0.005,0.031-0.005
		c0.062-0.005,0.096,0.014,0.098,0.057l0.002,0.016c-0.007,0.295-0.02,0.705-0.038,1.23c-0.021,0.523-0.042,1.119-0.064,1.785
		l2.139-0.15c0.042-0.002,0.084,0.01,0.126,0.037c0.04,0.025,0.067,0.074,0.071,0.143c0.003,0.027-0.024,0.125-0.077,0.295
		c-0.052,0.168-0.127,0.391-0.225,0.666l-0.245,0.666c-0.029,0.082-0.064,0.143-0.103,0.184c-0.038,0.039-0.115,0.07-0.24,0.088
		L116.133,44.553z"/>
	<path fill="#FFFFFF" d="M123.35,50.652c-0.752,0.053-1.417-0.023-2.002-0.229c-0.583-0.207-1.079-0.498-1.493-0.877
		c-0.409-0.383-0.729-0.83-0.959-1.346c-0.227-0.518-0.362-1.061-0.402-1.631c-0.04-0.568,0.016-1.117,0.167-1.641
		c0.151-0.529,0.38-1.006,0.685-1.436c0.31-0.432,0.686-0.799,1.138-1.105c0.446-0.307,0.954-0.529,1.51-0.664
		c0.085-0.01,0.125-0.031,0.123-0.064c-0.005-0.057-0.014-0.113-0.031-0.162c-0.016-0.049-0.027-0.092-0.029-0.129
		c-0.004-0.061,0.005-0.102,0.024-0.123c0.021-0.023,0.042-0.035,0.069-0.035c1.017-0.072,1.891-0.016,2.616,0.166
		c0.731,0.182,1.332,0.457,1.807,0.824c0.476,0.369,0.832,0.816,1.074,1.346c0.238,0.529,0.38,1.104,0.423,1.729
		c0.056,0.791-0.029,1.506-0.252,2.148c-0.225,0.639-0.552,1.193-0.979,1.656c-0.432,0.463-0.945,0.83-1.544,1.1
		C124.695,50.447,124.046,50.605,123.35,50.652z M121.561,46.27c0.021,0.287,0.069,0.572,0.151,0.85
		c0.08,0.277,0.2,0.525,0.356,0.744c0.155,0.219,0.355,0.393,0.594,0.516c0.238,0.127,0.527,0.176,0.87,0.152
		c0.242-0.029,0.451-0.096,0.629-0.207c0.179-0.111,0.327-0.25,0.447-0.416c0.123-0.166,0.223-0.354,0.294-0.555
		c0.076-0.203,0.131-0.41,0.167-0.623c0.038-0.215,0.058-0.424,0.064-0.629c0.007-0.203,0.007-0.387-0.005-0.551
		c-0.02-0.277-0.08-0.547-0.182-0.807c-0.101-0.26-0.236-0.484-0.41-0.676c-0.173-0.193-0.385-0.342-0.629-0.451
		c-0.247-0.109-0.523-0.15-0.832-0.131c-0.32,0.023-0.581,0.135-0.785,0.34c-0.205,0.205-0.365,0.449-0.477,0.734
		c-0.109,0.285-0.185,0.582-0.223,0.893C121.555,45.764,121.545,46.037,121.561,46.27z"/>
</g>
</svg>
